<?xml version="1.0" encoding="utf-8"?>
<!-- Generator: Adobe Illustrator 24.2.3, SVG Export Plug-In . SVG Version: 6.00 Build 0)  -->
<svg version="1.1" id="Layer_1" xmlns="http://www.w3.org/2000/svg" xmlns:xlink="http://www.w3.org/1999/xlink" x="0px" y="0px"
	 viewBox="0 0 512 512" style="enable-background:new 0 0 512 512;" xml:space="preserve">
<style type="text/css">
	.st0{fill:#0052B4;}
	.st1{fill:#D80027;}
	.st2{fill:#EEEEEE;}
	.st3{fill:#FFFF00;}
	.st4{fill:#F9D90F;stroke:#000000;stroke-width:0.273;stroke-miterlimit:4.0302;}
	.st5{fill:#DC171D;}
	.st6{fill:#62AFE1;}
	.st7{fill:#FFFFFF;}
	.st8{fill:none;stroke:#000000;stroke-width:1.1728;stroke-miterlimit:4.0302;}
	.st9{fill:#F9D90F;}
	.st10{fill:none;stroke:#000000;stroke-width:0.273;stroke-miterlimit:4.0302;}
	.st11{fill:#7E7E7E;}
	.st12{fill:#F9B60F;stroke:#000000;stroke-width:0.273;stroke-miterlimit:4.0302;}
	.st13{fill:#012A87;}
	.st14{fill:#BC715F;}
	.st15{fill:#008830;}
</style>
<g>
	<path class="st0" d="M314.5,255.4L73.8,435.9c0.9,0.9,1.9,1.9,2.8,2.8c0.2,0.2,0.4,0.4,0.5,0.5c4.4,4.3,9.1,8.5,13.8,12.5
		c0.1,0.1,0.1,0.1,0.2,0.2C135.7,489.4,193.2,512,256,512s120.3-22.6,164.9-60.2c0.1-0.1,0.1-0.1,0.2-0.2c4.8-4,9.4-8.2,13.8-12.5
		c0.2-0.2,0.4-0.4,0.5-0.5c1-1,2.1-2,3.1-3.1c0.1-0.1,0.2-0.2,0.3-0.3c41.6-42.4,68.5-99.2,72.6-162.2c0.1-0.9,0.1-1.8,0.2-2.7
		c0-0.9,0.1-1.8,0.1-2.7c0.1-1.2,0.1-2.4,0.1-3.6c0-0.7,0-1.4,0.1-2.2c0-1.9,0.1-3.9,0.1-5.9c0-0.2,0-0.4,0-0.6H314.4L314.5,255.4z"
		/>
	<path class="st1" d="M511.8,247.8c0-1.2-0.1-2.4-0.1-3.6c0-0.9-0.1-1.8-0.1-2.7c-0.1-0.9-0.1-1.8-0.2-2.7
		c-4.1-63-31.1-119.8-72.6-162.2c-0.1-0.1-0.2-0.2-0.3-0.3c-1-1-2.1-2.1-3.1-3.1c-0.2-0.2-0.4-0.4-0.5-0.5
		c-4.4-4.3-9.1-8.5-13.8-12.5c-0.1-0.1-0.1-0.1-0.2-0.2C376.3,22.6,318.8,0,256,0S135.7,22.6,91.1,60.2c-0.1,0.1-0.1,0.1-0.2,0.2
		c-4.8,4-9.4,8.2-13.8,12.5c-0.2,0.2-0.4,0.4-0.5,0.5c-0.7,0.7-1.3,1.3-2,2l239.8,179.9H512c0-1.8,0-3.5-0.1-5.3
		C511.9,249.3,511.9,248.6,511.8,247.8z"/>
	<path class="st2" d="M314.4,255.3H0c0,0.2,0,0.5,0,0.7c0,2,0,3.9,0.1,5.9c0,0.7,0,1.4,0.1,2.2c0,1.2,0.1,2.4,0.1,3.6
		c0,0.9,0.1,1.8,0.1,2.7c0.1,0.9,0.1,1.8,0.2,2.7c4.1,63,31.1,119.8,72.6,162.2c0.1,0.1,0.2,0.2,0.3,0.3c0.1,0.1,0.2,0.2,0.3,0.3
		l240.7-180.5L314.4,255.3z"/>
	<path class="st2" d="M74.6,75.4c-0.4,0.4-0.7,0.7-1.1,1.1c-0.1,0.1-0.2,0.2-0.3,0.3C31.6,119.2,4.7,176,0.6,239
		c-0.1,0.9-0.1,1.8-0.2,2.7c0,0.9-0.1,1.8-0.1,2.7c-0.1,1.2-0.1,2.4-0.1,3.6c0,0.7,0,1.4-0.1,2.2C0,251.9,0,253.6,0,255.3h314.4
		L74.6,75.4z"/>
</g>
<g>
	<path class="st3" d="M154.1,204.1l0.1-3.2c0,0-1.7-2.8,0.3-5.7c0,0-4.3-2.3-3.3-5.8c0,0-3.9-1-3.6-5.3c0,0-4.2-0.3-4.6-3.8
		c0,0-4.2,0.7-6-2.8c0,0-4.1,0.8-5.2-2.1c0,0-4,1.4-6.3-2c0,0-4.2,1.7-5.9-1.5c-1.7,3.2-5.9,1.5-5.9,1.5c-2.3,3.3-6.3,2-6.3,2
		c-1.1,2.9-5.2,2.1-5.2,2.1c-1.8,3.5-6,2.8-6,2.8c-0.4,3.5-4.6,3.8-4.6,3.8c0.3,4.3-3.5,5.2-3.5,5.2c1,3.5-3.3,5.8-3.3,5.8
		c2.1,3,0.3,5.7,0.3,5.7l-0.1,3L154.1,204.1"/>
	<path class="st4" d="M154.1,204.1l0.1-3.2c0,0-1.7-2.8,0.3-5.7c0,0-4.3-2.3-3.3-5.8c0,0-3.9-1-3.6-5.3c0,0-4.2-0.3-4.6-3.8
		c0,0-4.2,0.7-6-2.8c0,0-4.1,0.8-5.2-2.1c0,0-4,1.4-6.3-2c0,0-4.2,1.7-5.9-1.5c-1.7,3.2-5.9,1.5-5.9,1.5c-2.3,3.3-6.3,2-6.3,2
		c-1.1,2.9-5.2,2.1-5.2,2.1c-1.8,3.5-6,2.8-6,2.8c-0.4,3.5-4.6,3.8-4.6,3.8c0.3,4.3-3.5,5.2-3.5,5.2c1,3.5-3.3,5.8-3.3,5.8
		c2.1,3,0.3,5.7,0.3,5.7l-0.1,3L154.1,204.1L154.1,204.1L154.1,204.1z"/>
	<path class="st5" d="M152.4,200c-10.9-1.1-23.4-3.7-33,1.8c-6.5-3.8-15.5-3.6-23.2-2.8c-4.2,0.7-9.1,0.7-13.4,1.5l-0.7,0.1
		c-7.9,0.5-15.1-1.8-21.9-4.9c2.2,12.4,4.6,25.1,5.8,38c2.6,19.2-9.1,35.3-4.3,54.3c2.9,9.1,12.9,14.4,22,15.4
		c8.9,0.5,18,2,26.3,3.8c1.6,0.3,3.4,1,4.5,1.5c2.3,0.9,3.9,2.3,5.4,3.8c5-5.2,12.2-6.6,19.4-7.4c12.9-1.5,28.8-0.7,36.7-12.4V292
		c4.3-6.5,3.7-16.3,1.9-23.7c-0.1-2.6-0.8-4.8-1.2-7.2c-7.9-20.8-1.1-44.3,2.3-65.3c-4.1,2.3-8.8,3.3-13.4,4.5
		c-3.7,0.5-7.8,0.3-11.5,0.1L152.4,200"/>
	<path class="st6" d="M168.7,259.8c-0.1,1.4,0.7,2.4,1,3.7c1.5,9.1,3,21.2-6.4,26.8c-10.4,6.6-24,3.8-36,7.3
		c-2.4,0.7-5.7,2.9-7.4,4.4c-1.1-0.7-2.2-1.8-3.6-2.4c-9.9-5.3-22.7-3.5-33.9-6.3c-5.6-1.8-11.4-6.1-12.9-11.9
		c-3.6-15,5.1-27.8,4.1-42.8c-0.7-11.4-2.6-22.3-5.2-33c8.7,4.1,18.8,4.7,28.6,2.8c7.3-1,15.7-1,22.5,2c3.7-1.6,8.1-2.3,12.2-2.8
		c7.7,0.7,15.9,2.1,23.8,2.1c5.3-0.3,10.1-1.8,14.7-3.8C167.5,223.6,162.2,242.1,168.7,259.8"/>
	<path class="st7" d="M153,263.4l-0.1-16.6h2l-25.4-16.4v-8.5h2.5l-12.7-9.1l-12.6,9.1h2.4v8.5l-25.2,16.4h2l0.1,16.6H153"/>
	<path class="st8" d="M153,263.4l-0.1-16.6h2l-25.4-16.4v-8.5h2.5l-12.7-9.1l-12.6,9.1h2.4v8.5l-25.2,16.4h2l0.1,16.6H153L153,263.4
		L153,263.4z"/>
	<path class="st7" d="M160.8,285.2v5.2l-81.7-0.1v-5.2L160.8,285.2"/>
	<path class="st8" d="M160.8,285.2v5.2l-81.7-0.1v-5.2L160.8,285.2L160.8,285.2L160.8,285.2z"/>
	<path class="st7" d="M84.5,284.8l-0.1-17.6h3.3L87.5,285l0.2-17.6l-4.8-0.1v-3.8l73,0.1v3.7h-4.5l0.1,17.8l-0.2-17.8h3.4l0.1,17.6"
		/>
	<path class="st8" d="M84.5,284.8l-0.1-17.6h3.3L87.5,285l0.2-17.6l-4.8-0.1v-3.8l73,0.1v3.7h-4.5l0.1,17.8l-0.2-17.8h3.4l0.1,17.6
		 M100.2,280.5l-0.1-12.3h-9.8l0.1,12.2L100.2,280.5 M100.2,280.5l-0.1-12.3h-9.8l0.1,12.2L100.2,280.5 M100.2,280.5l-0.1-12.3h-9.8
		l0.1,12.2L100.2,280.5 M100.2,280.5l-0.1-12.3h-9.8l0.1,12.2L100.2,280.5 M100.2,280.5l-0.1-12.3h-9.8l0.1,12.2L100.2,280.5
		 M93,270.8v7.1h4.5v-7.1H93 M148.1,280.5l-0.1-12.2h-9.8v12.3L148.1,280.5 M141,270.9l0.1,7.1h4.5v-7.1H141 M148.1,260.6l-0.1-12.3
		h-9.8v12.3H148.1L148.1,260.6L148.1,260.6z M140.9,250.9v7.1h4.5v-7.1H140.9 M100.1,260.5l-0.1-12.2h-9.8v12.2H100.1L100.1,260.5
		L100.1,260.5z M92.9,250.9v7.1h4.5v-7.1H92.9 M117.9,260.6v-12.2h-9.8v12.2H117.9 M110.7,250.9v7.1h4.5v-7.1H110.7 M131.5,260.6
		l-0.1-12.3h-9.8v12.2L131.5,260.6 M124.4,250.9v7.1h4.5v-7.1H124.4"/>
	<path class="st7" d="M134,256.8l0.1,28.3h-28.4l-0.1-28.2L134,256.8"/>
	<path class="st8" d="M134,256.8l0.1,28.3h-28.4l-0.1-28.2L134,256.8L134,256.8z M105.4,264.9H134 M105.4,264.9H134 M105.4,264.9
		H134 M105.4,264.9H134 M105.4,264.9H134 M109,285.1l-0.1-20 M130.6,285.1l-0.1-20 M144.3,244.8l-16-11.7h-18l-15.9,11.6
		L144.3,244.8 M111.8,223.4v7.1h15.1v-7.1H111.8 M111.8,223.4v7.1h15.1v-7.1H111.8"/>
	<path class="st8" d="M111.8,223.4v7.1h15.1v-7.1H111.8"/>
	<path class="st8" d="M115.9,225.2v3.5h6.9v-3.5H115.9 M119.3,215.3l8.4,5.9H111L119.3,215.3 M119.3,215.3l8.4,5.9H111L119.3,215.3
		 M119.3,215.3l8.4,5.9H111L119.3,215.3 M119.3,215.3l8.4,5.9H111L119.3,215.3 M119.3,215.3l8.4,5.9H111L119.3,215.3"/>
	<path class="st7" d="M153.3,211.3c2.4-0.1,3,9.8,3,14.7c2,0.6,6.6,3.4,8.6,6h-23.1c2-2.6,6.5-5.4,8.5-6
		C150.4,221.1,150.9,211.2,153.3,211.3"/>
	<path class="st8" d="M153.3,211.3c2.4-0.1,3,9.8,3,14.7c2,0.6,6.6,3.4,8.6,6h-23.1c2-2.6,6.5-5.4,8.5-6
		C150.4,221.1,150.9,211.2,153.3,211.3 M106.9,257.6h2.1l-0.6,1.1 M106.9,257.6h2.1l-0.6,1.1 M106.9,257.6h2.1l-0.6,1.1
		 M106.9,257.6h2.1l-0.6,1.1 M106.9,257.6h2.1l-0.6,1.1c0,0,1,1.3,0,2.8l0.5,1h-2l0.5-1c0,0-1-1.7,0-2.8L106.9,257.6 M111.1,257.6
		h2.1l-0.6,1.1c0,0,1,1.2,0,2.8l0.5,1h-2l0.5-1c0,0-1-1.7,0.1-2.8L111.1,257.6 M115.7,257.6h2.1l-0.6,1.1c0,0,1,1.3,0,2.8l0.5,1h-2
		l0.5-1c0,0-1-1.7,0-2.8L115.7,257.6L115.7,257.6L115.7,257.6z M120.9,257.6h2.1l-0.6,1.1c0,0,1,1.3,0,2.7l0.6,1h-2l0.5-1
		c0,0-1-1.7,0.1-2.8L120.9,257.6L120.9,257.6L120.9,257.6z M125.5,257.6h2.1l-0.6,1.1c0,0,1,1.3,0,2.7l0.5,1h-2l0.5-1
		c0,0-1-1.7,0.1-2.8L125.5,257.6 M130.1,257.7h2.1l-0.6,1.1c0,0,1,1.3,0,2.7l0.5,1h-2l0.5-1c0,0-1-1.7,0.1-2.8L130.1,257.7"/>
	<path class="st9" d="M119.9,321.3c10.6,0,23.7-2.1,29.8-5.3l13.4-1.2l0.3,16.4c-11.4,6.3-37.7,7.6-43.5,7.6s-32.4-1.3-43.9-7.6
		l0.1-16.4l13.5,1.2C95.9,319.1,109.3,321.3,119.9,321.3L119.9,321.3"/>
	<path class="st10" d="M119.9,321.3c10.6,0,23.7-2.1,29.8-5.3l13.4-1.2l0.3,16.4c-11.4,6.3-37.7,7.6-43.5,7.6s-32.4-1.3-43.9-7.6
		l0.1-16.4l13.5,1.2C95.9,319.1,109.3,321.3,119.9,321.3L119.9,321.3"/>
	<path class="st9" d="M41.5,251.3l11.8,3.8l-3.6,19.2L38.5,276C38.5,276,36.6,265.9,41.5,251.3"/>
	<path class="st10" d="M41.5,251.3l11.8,3.8l-3.6,19.2L38.5,276C38.5,276,36.6,265.9,41.5,251.3L41.5,251.3L41.5,251.3z"/>
	<path class="st11" d="M49.7,274.1l-11.2,2l7.1-10.1L49.7,274.1"/>
	<path class="st12" d="M49.7,274.1l-11.2,2l7.1-10.1L49.7,274.1"/>
	<path class="st9" d="M34.4,265.1l11.4,0.8c0.3,9.7,1.4,46.6,45.5,48.6L90,328C36.3,328.6,32.2,282.7,34.4,265.1"/>
	<path class="st10" d="M34.4,265.1l11.4,0.8c0.3,9.7,1.4,46.6,45.5,48.6L90,328C36.3,328.6,32.2,282.7,34.4,265.1L34.4,265.1z
		 M76.3,330.7l13.5-2.9 M76.3,330.7l13.5-2.9 M76.3,330.7l13.5-2.9 M76.3,330.7l13.5-2.9 M76.3,330.7l13.5-2.9"/>
	<path class="st3" d="M197.4,251.4l-11.8,3.7l3.7,19.2l11.2,1.8C200.6,276.1,202.4,266.1,197.4,251.4"/>
	<path class="st4" d="M197.4,251.4l-11.8,3.7l3.7,19.2l11.2,1.8C200.6,276.1,202.4,266.1,197.4,251.4L197.4,251.4L197.4,251.4z"/>
	<path class="st11" d="M189.4,274.1l11.2,2l-7.2-10.1L189.4,274.1"/>
	<path class="st12" d="M189.4,274.1l11.2,2l-7.2-10.1L189.4,274.1"/>
	<path class="st9" d="M204.6,265.3l-11.4,0.8c-0.2,9.7-1,46.6-45.1,48.6l1.5,13.4C203.3,328.7,206.9,282.8,204.6,265.3"/>
	<path class="st10" d="M204.6,265.3l-11.4,0.8c-0.2,9.7-1,46.6-45.1,48.6l1.5,13.4C203.3,328.7,206.9,282.8,204.6,265.3L204.6,265.3
		L204.6,265.3z M163.3,330.8l-13.5-3"/>
	<path class="st13" d="M112.8,329.4c-0.3,0.2-0.7,0.2-1.2,0.2l-2.1-0.1l0.2-2.7l2.1,0.1c0.4,0,0.7,0.1,1,0.2
		c0.4,0.2,0.6,0.6,0.6,1.2C113.3,328.9,113.1,329.2,112.8,329.4 M109.2,333.6l0.2-3.2l2.5,0.2c0.8,0.1,1.4-0.1,1.8-0.6
		c0.4-0.4,0.6-0.9,0.7-1.5c0.1-0.7-0.1-1.3-0.5-1.7c-0.4-0.4-1-0.6-1.7-0.7l-3.5-0.2l-0.5,7.6L109.2,333.6 M116.9,327.2h2.6
		 M116.9,327.2h2.6 M116.9,327.2h2.6 M116.9,327.2h2.6 M116.9,327.2h2.6c0.4,0,0.7,0.1,0.9,0.2c0.4,0.2,0.6,0.6,0.6,1.1
		s-0.1,0.9-0.4,1.1s-0.7,0.3-1.2,0.3h-2.5V327.2 M116.9,334v-3.3h2.4c0.4,0,0.8,0,1,0.1c0.4,0.2,0.5,0.5,0.6,1l0.1,1.3
		c0,0.3,0,0.5,0,0.6s0.1,0.2,0.1,0.3h1.3v-0.2c-0.1-0.1-0.3-0.2-0.3-0.5c0-0.1-0.1-0.4-0.1-0.7v-1c0-0.5-0.1-0.8-0.3-1
		c-0.2-0.2-0.4-0.4-0.7-0.5c0.4-0.2,0.6-0.4,0.8-0.7c0.2-0.3,0.3-0.7,0.3-1.2c0-0.9-0.4-1.5-1.1-1.8c-0.4-0.2-0.9-0.3-1.5-0.3h-3.7
		v7.7L116.9,334 M125,332.4c-0.5-0.6-0.7-1.3-0.8-2.1c-0.1-1.1,0.2-1.9,0.6-2.4c0.5-0.6,1.1-0.9,1.9-0.9s1.5,0.2,2,0.7
		s0.8,1.2,0.9,2.1c0,0.9-0.1,1.6-0.5,2.3c-0.4,0.7-1,1.1-2,1.1C126.2,333.2,125.5,332.9,125,332.4 M123.8,327.5
		c-0.5,0.8-0.7,1.6-0.6,2.7s0.4,2.1,1.1,2.8c0.7,0.7,1.7,1.1,2.9,1c1.3-0.1,2.3-0.5,2.9-1.4c0.5-0.8,0.8-1.8,0.7-2.9
		c-0.1-1-0.4-1.9-0.9-2.5c-0.7-0.8-1.8-1.2-3.2-1.2C125.4,326.1,124.4,326.5,123.8,327.5 M159.7,316.5c0.7-0.1,1.4-0.1,2,0.1
		c0.9,0.3,1.4,0.9,1.8,1.9l-1.1,0.1c-0.2-0.5-0.6-0.9-1-1.1s-1-0.2-1.6-0.1c-0.7,0.1-1.3,0.5-1.7,1c-0.4,0.6-0.5,1.4-0.3,2.5
		c0.1,0.9,0.5,1.6,1,2.1s1.2,0.7,2.1,0.5c0.7-0.1,1.3-0.4,1.6-0.9c0.4-0.5,0.5-1.1,0.4-2l-2.5,0.4l-0.1-0.8l3.4-0.5l0.7,4l-0.7,0.1
		l-0.4-0.9c-0.3,0.4-0.6,0.7-0.8,0.9c-0.4,0.3-1,0.5-1.7,0.6c-0.9,0.1-1.8,0-2.5-0.5c-0.8-0.6-1.4-1.5-1.6-2.8
		c-0.2-1.3,0-2.3,0.6-3.2C157.8,317.1,158.6,316.7,159.7,316.5 M167.5,315.9l2.5-0.9c0.3-0.1,0.6-0.2,0.9-0.1c0.4,0,0.8,0.3,1,0.8
		s0.2,0.9,0,1.1c-0.2,0.3-0.5,0.5-1,0.7l-2.3,0.8L167.5,315.9 M169.9,322.3l-1.2-3.1l2.3-0.8c0.4-0.1,0.7-0.2,0.9-0.2
		c0.4,0.1,0.7,0.3,0.9,0.8l0.5,1.2c0.1,0.3,0.2,0.5,0.3,0.5c0,0.1,0.1,0.2,0.2,0.2l1.2-0.5l-0.1-0.2c-0.2,0-0.4-0.1-0.5-0.3
		c-0.1-0.1-0.2-0.3-0.3-0.6l-0.4-1c-0.2-0.4-0.4-0.7-0.6-0.8c-0.3-0.1-0.5-0.2-0.8-0.2c0.3-0.3,0.4-0.6,0.5-0.9s0-0.7-0.1-1.2
		c-0.3-0.8-0.9-1.3-1.7-1.3c-0.4,0-0.9,0.1-1.5,0.3l-3.4,1.2l2.8,7.2L169.9,322.3 M178.9,318.5l-4.4-6.4l4.8-3.1l0.5,0.8l-3.9,2.5
		l1.3,1.9l3.6-2.3l0.5,0.7l-3.6,2.3l1.5,2.1l4-2.6l0.5,0.8L178.9,318.5 M182.7,307.2l1.3-1.4c0.6-0.6,1.2-0.9,1.9-0.8s1.4,0.4,2.1,1
		c0.2,0.2,0.4,0.4,0.6,0.6c0.3,0.4,0.5,0.8,0.6,1.1c0.1,0.5,0.1,0.9-0.1,1.3c-0.1,0.2-0.3,0.4-0.5,0.7l-1.3,1.4L182.7,307.2
		 M189.3,310.2c0.9-1,1.1-2,0.6-3.2c-0.3-0.7-0.8-1.3-1.4-1.8c-0.8-0.7-1.6-1.1-2.5-1.1c-1-0.1-1.8,0.3-2.5,1.1l-2.1,2.3l5.9,5.1
		L189.3,310.2 M193.9,304.3l-6.8-4l0.6-0.9l6.8,4L193.9,304.3 M196.5,299.6l-7.3-2.9l2.2-5.1l0.9,0.3l-1.8,4.2l2.2,0.9l1.6-3.9
		l0.8,0.3l-1.6,3.9l2.5,1l1.8-4.3l0.9,0.3L196.5,299.6 M199.9,290.6l-7.7-1.7l0.3-1.2l7.1-2.4l-6.2-1.4l0.2-0.9l7.7,1.7l-0.2,1.2
		l-7.1,2.5l6.2,1.4L199.9,290.6 M199.3,280.9l0.1-1c0.4,0,0.8-0.1,1.1-0.2c0.6-0.3,0.9-0.9,1-1.7c0-0.4,0-0.7-0.1-1.1
		c-0.2-0.6-0.5-1-1.1-1c-0.4,0-0.7,0.1-1,0.3c-0.2,0.3-0.4,0.7-0.6,1.2l-0.4,1c-0.2,0.7-0.4,1.1-0.7,1.4c-0.4,0.5-0.9,0.6-1.5,0.6
		c-0.7-0.1-1.3-0.4-1.7-0.9s-0.6-1.2-0.5-2.1c0.1-0.8,0.3-1.5,0.8-2c0.4-0.5,1.1-0.7,2-0.6l-0.1,1c-0.4,0-0.8,0.1-1,0.2
		c-0.4,0.2-0.7,0.8-0.8,1.5c-0.1,0.6,0,1,0.3,1.4c0.2,0.3,0.5,0.4,0.9,0.5c0.4,0,0.7-0.1,0.9-0.4c0.1-0.2,0.3-0.6,0.6-1.3l0.3-1.1
		c0.2-0.5,0.4-0.9,0.6-1.1c0.4-0.4,1-0.6,1.7-0.6c0.9,0.1,1.5,0.4,1.8,1.1s0.4,1.4,0.4,2.2c-0.1,0.9-0.4,1.7-1,2.1
		C200.8,280.8,200.1,280.9,199.3,280.9 M39.6,280.4l0.2,1c-0.4,0.1-0.8,0.3-1,0.5c-0.4,0.4-0.6,1.1-0.4,1.9c0.1,0.4,0.2,0.7,0.4,1
		c0.3,0.6,0.8,0.8,1.4,0.7c0.4-0.1,0.7-0.2,0.8-0.5s0.2-0.7,0.2-1.3l0.1-1.1c0-0.7,0.1-1.2,0.3-1.5c0.2-0.5,0.7-0.8,1.3-1
		c0.6-0.1,1.3,0,1.8,0.4s0.9,1,1,1.9c0.2,0.8,0.1,1.5-0.2,2.1s-0.9,1-1.7,1.2l-0.2-1c0.4-0.1,0.7-0.3,0.9-0.5
		c0.3-0.4,0.4-0.9,0.3-1.7c-0.1-0.6-0.3-1-0.6-1.2s-0.6-0.3-1-0.3c-0.4,0.1-0.6,0.3-0.8,0.6c-0.1,0.2-0.1,0.7-0.2,1.4l-0.1,1.1
		c0,0.5-0.1,1-0.3,1.3c-0.3,0.5-0.8,0.9-1.4,1c-0.9,0.1-1.5-0.1-2-0.6s-0.8-1.2-0.9-2c-0.2-1,0-1.7,0.3-2.3
		C38.2,280.9,38.8,280.5,39.6,280.4 M39.2,290.5l7.5-2.3l1.8,5.3l-0.9,0.3l-1.4-4.4l-2.3,0.7l1.3,4l-0.9,0.3l-1.3-4l-2.6,0.8
		l1.5,4.5L41,296L39.2,290.5 M42.5,299.7l6.9-3.7l0.7,1.3l-4.8,5l7-1.2l0.7,1.3l-6.9,3.7l-0.5-0.8l4.1-2.1c0.1-0.1,0.4-0.2,0.7-0.4
		c0.3-0.1,0.7-0.3,1.1-0.5l-6.9,1.2l-0.5-0.9l4.7-5l-0.2,0.1c-0.1,0.1-0.4,0.2-0.8,0.4c-0.2,0.2-0.5,0.3-0.8,0.4l-4.1,2.2
		L42.5,299.7 M55.4,309.9c-0.3-0.1-0.7-0.3-1-0.6l-1.5-1.5l2-1.8l1.5,1.5c0.3,0.3,0.5,0.6,0.6,0.8c0.1,0.4,0,0.9-0.4,1.2
		C56.1,309.8,55.8,310,55.4,309.9 M49.8,310.6l2.4-2.2l1.7,1.7c0.6,0.6,1.1,0.8,1.7,0.8c0.6,0,1.2-0.3,1.6-0.7
		c0.5-0.5,0.8-1,0.8-1.6s-0.3-1.1-0.7-1.6l-2.5-2.5l-5.7,5.3L49.8,310.6 M56.7,316.7l4.2-6.5l4.9,3l-0.5,0.8l-4-2.4l-1.2,2l3.7,2.2
		l-0.5,0.7l-3.7-2.2l-1.4,2.2l4.1,2.5l-0.5,0.8L56.7,316.7 M69,315.5l2.5,0.8c0.4,0.1,0.6,0.2,0.8,0.4c0.3,0.3,0.4,0.7,0.2,1.3
		c-0.2,0.5-0.4,0.8-0.8,0.9c-0.3,0.1-0.7,0.1-1.2-0.1l-2.4-0.8L69,315.5 M66.9,321.9l1-3.1l2.3,0.8c0.4,0.1,0.7,0.3,0.9,0.4
		c0.3,0.3,0.4,0.6,0.2,1.1l-0.3,1.2c-0.1,0.3-0.1,0.5-0.2,0.6c0,0.1,0,0.2,0,0.3l1.2,0.4l0.1-0.2c-0.1-0.1-0.2-0.3-0.2-0.5
		c0-0.1,0.1-0.4,0.1-0.6l0.3-1c0.1-0.4,0.2-0.8,0.1-1c-0.1-0.3-0.3-0.5-0.5-0.7c0.4-0.1,0.7-0.2,1-0.4c0.3-0.2,0.5-0.6,0.6-1
		c0.3-0.8,0.1-1.5-0.5-2c-0.3-0.3-0.7-0.5-1.3-0.7l-3.5-1.1l-2.4,7.3L66.9,321.9"/>
	<path class="st14" d="M77.5,189.7c0.9-2.2,9.2-8.1,36.6-5.5c0,0,4.6,2.8,7.3,2.5c1.6-0.2-0.9,0.1-2.9-1.6c-2.1-1.7-2.5-5.1,2.2-5
		s22.2,1.1,22.6,2.7c0.3,1.6-9.3,2.3-12.8,2.2c-3.6-0.1-3.2,1.7,0.4,1.6c11.1-0.4,23.3-4.3,36.1,4.8c1.5,1.1-3.9,1.3-8.1-0.5
		c0,0-11.3,0.6-16.2-0.2c0,0-3.8,3.1-8.7,2.8c0.6,1.6-1.8,7.5-17.2,3.1c-2.5,0.8-11.8,2.3-10.8-0.4c-2.4,0-6.7,0.8-7.4-0.6
		c-0.6-1.4,7.5-3.4,9-4.9c0,0-17.3,0.2-20.5-1C87,189.4,76.9,191.7,77.5,189.7"/>
	<path class="st15" d="M83,213.9c0.4-0.5,0.5-1.4,1.3-1.4c1.7,0.5,2.9,3.6,5,1.6c0.7-0.2,1,0.8,1.6,1c0.4,1.7,1.8-0.4,2.8-0.2
		c2.2-1,5-1.2,7.6-0.7c0.1,1.7-1.3,3.6-2.9,4.6c0,1.7,1.6,2.8,1.6,4.5c-0.3,0.6,0,1.7-1,1.9c-1.2-0.2-2.5-0.4-3.5-1
		c-0.1-0.1-0.2-0.4-0.5-0.3c-0.1,0.6,0.8,1.1,1.1,1.7c-0.6,1.1-1.7,0.1-2.5,0.1c-0.3,0.6,0,1.4-0.6,1.8c-1.1,0-1.3-1.2-2-1.8
		c-0.7,0.7,0.5,1.2,0.7,1.8c-0.4,2.2-0.4,4.4-2.6,5.9l-1.5,0.7c-0.4-1.1-0.2-2.8-0.4-4c-0.9,1.4-1.6,2.7-2.9,3.9
		c-1.5-0.5-2.4-2.3-2.7-3.8c-0.6-1.7-0.3-3.8,1.1-5.1c-0.5-0.9-2.1-0.7-2.3-2c-2.4-1.6-3.7,2.7-5.3,0.5c-0.5-2.1,0.1-4.7,1.6-6.2
		c-0.3-0.9-1.5-0.6-2.1-1.1c-1.5-1.3-3.7-2.6-3.6-5C75,209.6,80,210.7,83,213.9"/>
	<path class="st9" d="M85.1,213.6c-0.1,1.9,1.3,0.5,2.3,1.7c-0.8-0.3-1.4,1.4-2.2,0.4l-0.5,0.5c0.3,0.6,0.8,0.7,0.3,1.4
		c-0.9,0.3-1-0.7-1.4-1.2c-0.1-0.2,0.1-0.5-0.2-0.7c-0.5,0.4-1,0.6-1.7,0.5c-0.2-0.4-0.5-0.8-0.2-1.1c0.7-0.9,1.7,0.3,2.2-0.3
		c0.1-0.5-0.4-1.2,0.2-1.6C84.4,213.3,85,213.1,85.1,213.6 M90.2,215.2c0.1,0.4-0.2,0.9,0.3,1.1c0.6-0.3,1.3-0.1,1.6,0.5
		c0,0.3,0.1,0.8-0.3,0.9l-1-0.2c0.1-0.2-0.2-0.3-0.4-0.5c-0.4-0.1-0.7,0.2-1,0.4c0.2,0.4,0.8,0.6,0.7,1c-0.6,0.6-0.8-0.5-1.5-0.2
		c-0.4-0.2,0.2-1.1-0.5-1.3c-0.8,0-0.3,1.3-1.3,0.8c-0.4-0.4-0.7-1-0.3-1.4c0.4-0.3,1.2-0.2,1.5,0.2
		C88.7,215.9,88.8,213.2,90.2,215.2 M83.9,217.9c0.4,0.6-0.1,1.4,0.4,2.1c0.8-1.6,1.6,0.3,2.6,0.2c0.3,0.4,0.1,0.9,0.2,1.3
		c-1.2,0.3-2.7,0.7-3.8-0.3l-0.3,0.3c0.6,0.6,1.3,1.3,0.7,2.3c-0.9,0.2-2.3,0.2-2.8-0.7c-0.2-0.8,0.6-1.3-0.3-2
		c-0.6,0.8-0.6,1.8-1.9,1.1c-0.8-0.4-1-1.3-0.6-2.1c0.8-1.3,2.3,0,3.1-0.6c0.1-1.1-0.3-2.1,0.7-2.7
		C82.9,216.7,83.4,217.4,83.9,217.9"/>
	<path class="st7" d="M87.3,218.6c-0.4,1.9-1.8-0.1-2.5-0.2C85.7,216.9,86.3,219,87.3,218.6 M91.8,220.7c-1,0.3-0.8-1-1.3-1.4
		l0.4-0.3C91.2,219.3,91.5,220.1,91.8,220.7"/>
	<path class="st9" d="M90.4,220.3c0.3,0.7-0.6,1.2,0.1,1.7c0.3-0.2,0.6-0.5,0.7-0.6c0.7,0.2,1.5,0.3,1.9,1c0.5,1.4-0.9,1.4-1.7,1.7
		h-0.8c0.2-0.4-0.3-0.6-0.5-0.8c-0.4-0.1-0.7,0-0.9,0.3c0.2,0.9,1.3,1.6,0.1,2.4c-0.9-0.1-2.4,0.3-2.3-1c-0.4-0.7,1-1.9-0.4-1.9
		c-0.5,1-1,1.9-2.2,1l0.1-1.4c1.2,0,2.5,0.2,3-1.1c0.3-0.9-0.6-1.8,0.2-2.5C89.2,218.7,89.8,219.5,90.4,220.3"/>
	<path d="M89.6,222.4c0.3,0.7-0.5,0.7-0.9,1.1c-0.5,0-0.9-0.2-1.2-0.5c-0.2-0.8,0.4-0.9,0.9-1.3C89,221.5,89.2,222.2,89.6,222.4"/>
	<path class="st7" d="M88.9,222.9c-0.1,0.2-0.3,0.1-0.5,0.2l-0.2-0.8C88.6,222.2,89.1,222.3,88.9,222.9"/>
</g>
</svg>
