<?xml version="1.0" encoding="utf-8"?>
<!-- Generator: Adobe Illustrator 24.2.3, SVG Export Plug-In . SVG Version: 6.00 Build 0)  -->
<svg version="1.1" id="Layer_1" xmlns="http://www.w3.org/2000/svg" xmlns:xlink="http://www.w3.org/1999/xlink" x="0px" y="0px"
	 viewBox="0 0 512 512" style="enable-background:new 0 0 512 512;" xml:space="preserve">
<style type="text/css">
	.st0{fill:#012169;}
	.st1{fill:#EEEEEE;}
	.st2{fill:#D80027;}
	.st3{fill:#128BBF;}
	.st4{fill:#E8ECE9;}
	.st5{fill:#69522B;}
	.st6{fill:#BCA76B;}
	.st7{fill:#CFA763;}
	.st8{fill:#D7C99C;}
	.st9{fill:#7FB8C1;}
	.st10{fill:none;stroke:#000000;stroke-width:2;}
	.st11{fill:none;stroke:#000000;stroke-width:0.6565;stroke-miterlimit:5.2518;}
	.st12{fill:#666666;}
	.st13{fill:#BCA76B;stroke:#472B1F;stroke-width:0.3767;stroke-miterlimit:5.2518;}
	.st14{fill:#333333;stroke:#000000;stroke-width:1.313;stroke-miterlimit:5.2518;}
	.st15{fill:#472B1F;}
	.st16{fill:#FFFFFF;}
	.st17{fill:#C8102E;}
	.st18{fill:none;stroke:#472B1F;stroke-width:1.313;stroke-miterlimit:5.2518;}
	.st19{fill:#BCA76B;stroke:#472B1F;stroke-width:0.3939;stroke-miterlimit:5.2518;}
	.st20{fill:#BCA76B;stroke:#472B1F;stroke-width:0.3802;stroke-miterlimit:5.2518;}
	.st21{fill:#BCA76B;stroke:#472B1F;stroke-width:0.5218;stroke-miterlimit:5.2518;}
	.st22{fill:#BCA76B;stroke:#472B1F;stroke-width:0.6376;stroke-miterlimit:5.2518;}
	.st23{fill:#BCA76B;stroke:#472B1F;stroke-width:0.546;stroke-miterlimit:5.2518;}
	.st24{fill:#BCA76B;stroke:#472B1F;stroke-width:0.5286;stroke-miterlimit:5.2518;}
	.st25{fill:#BCA76B;stroke:#472B1F;stroke-width:0.557;stroke-miterlimit:5.2518;}
	.st26{fill:#BCA76B;stroke:#472B1F;stroke-width:0.6806;stroke-miterlimit:5.2518;}
	.st27{fill:#BCA76B;stroke:#472B1F;stroke-width:0.5828;stroke-miterlimit:5.2518;}
	.st28{fill:#BCA76B;stroke:#472B1F;stroke-width:0.5642;stroke-miterlimit:5.2518;}
	.st29{fill:#BCA76B;stroke:#472B1F;stroke-width:0.571;stroke-miterlimit:5.2518;}
	.st30{fill:#BCA76B;stroke:#472B1F;stroke-width:0.6978;stroke-miterlimit:5.2518;}
	.st31{fill:#BCA76B;stroke:#472B1F;stroke-width:0.5975;stroke-miterlimit:5.2518;}
	.st32{fill:#BCA76B;stroke:#472B1F;stroke-width:0.5784;stroke-miterlimit:5.2518;}
	.st33{fill:#BCA76B;stroke:#472B1F;stroke-width:0.336;stroke-miterlimit:5.2518;}
	.st34{stroke:#000000;stroke-width:0.3939;stroke-miterlimit:5.2518;}
	.st35{fill:#BCA76B;stroke:#472B1F;stroke-width:0.3783;stroke-miterlimit:5.2518;}
	.st36{fill:#BCA76B;stroke:#472B1F;stroke-width:0.3264;stroke-miterlimit:5.2518;}
	.st37{fill:#BCA76B;stroke:#472B1F;stroke-width:0.298;stroke-miterlimit:5.2518;}
	.st38{fill:#BCA76B;stroke:#472B1F;stroke-width:0.3217;stroke-miterlimit:5.2518;}
	.st39{fill:#333333;}
	.st40{fill:#BCA76B;stroke:#472B1F;stroke-width:0.352;stroke-miterlimit:5.2518;}
	.st41{fill:#BCA76B;stroke:#472B1F;stroke-width:0.4556;stroke-miterlimit:5.2518;}
	.st42{stroke:#000000;stroke-width:0.9191;stroke-miterlimit:5.2518;}
	.st43{fill:#BCA76B;stroke:#472B1F;stroke-width:0.4335;stroke-miterlimit:5.2518;}
	.st44{fill:#BCA76B;stroke:#472B1F;stroke-width:0.5298;stroke-miterlimit:5.2518;}
	.st45{fill:#BCA76B;stroke:#472B1F;stroke-width:0.4536;stroke-miterlimit:5.2518;}
	.st46{fill:#BCA76B;stroke:#472B1F;stroke-width:0.4392;stroke-miterlimit:5.2518;}
	.st47{fill:#BCA76B;stroke:#472B1F;stroke-width:0.6013;stroke-miterlimit:5.2518;}
	.st48{fill:#BCA76B;stroke:#472B1F;stroke-width:0.5008;stroke-miterlimit:5.2518;}
	.st49{fill:#BCA76B;stroke:#472B1F;stroke-width:0.5119;stroke-miterlimit:5.2518;}
	.st50{fill:#BCA76B;stroke:#472B1F;stroke-width:0.5248;stroke-miterlimit:5.2518;}
	.st51{fill:#BCA76B;stroke:#472B1F;stroke-width:0.7506;stroke-miterlimit:5.2518;}
	.st52{fill:#BCA76B;stroke:#472B1F;stroke-width:0.5491;stroke-miterlimit:5.2518;}
	.st53{fill:#BCA76B;stroke:#472B1F;stroke-width:0.5443;stroke-miterlimit:5.2518;}
	.st54{fill:#BCA76B;stroke:#472B1F;stroke-width:0.5683;stroke-miterlimit:5.2518;}
	.st55{fill:#BCA76B;stroke:#472B1F;stroke-width:0.6944;stroke-miterlimit:5.2518;}
	.st56{fill:#BCA76B;stroke:#472B1F;stroke-width:0.5946;stroke-miterlimit:5.2518;}
	.st57{fill:#BCA76B;stroke:#472B1F;stroke-width:0.6285;stroke-miterlimit:5.2518;}
	.st58{fill:#BCA76B;stroke:#472B1F;stroke-width:0.274;stroke-miterlimit:5.2518;}
	.st59{fill:#BCA76B;stroke:#472B1F;stroke-width:0.2821;stroke-miterlimit:5.2518;}
	.st60{fill:none;stroke:#000000;stroke-width:1.313;stroke-miterlimit:5.2518;}
	.st61{fill:#69737C;stroke:#000000;stroke-width:0.7288;stroke-miterlimit:1.9433;}
	.st62{fill:#66452B;stroke:#000000;stroke-width:0.7288;stroke-miterlimit:1.9433;}
	.st63{fill:#69737C;}
	.st64{fill:none;stroke:#000000;stroke-width:0.7288;stroke-miterlimit:1.9433;}
	.st65{stroke:#000000;stroke-width:0.4858;stroke-miterlimit:1.9433;}
</style>
<path class="st0" d="M512,256c0,141.4-114.6,256-256,256S0,397.4,0,256L256,0C397.4,0,512,114.6,512,256z"/>
<g>
	<path class="st1" d="M255.3,256h0.7v-0.7L255.3,256z"/>
	<path class="st1" d="M256,133.6V0C114.6,0,0,114.6,0,256h133.6v-75.2l75.2,75.2h46.5l0.7-0.7v-46.5l-75.2-75.2H256z"/>
</g>
<g>
	<path class="st2" d="M129.5,33.4c-40.1,22.8-73.3,56-96.1,96.1V256h66.8V100.2H256V33.4H129.5z"/>
	<path class="st2" d="M256,224.5l-91-91h-31.4L256,256V224.5z"/>
</g>
<g>
	<path id="path17" class="st3" d="M464.5,255.7c-0.2,59.9-9.7,124.3-87.7,155c-78.1-30.7-87.6-95.2-87.8-155H464.5z"/>
	<path id="path19" class="st4" d="M376.8,410.8c35.4-13.9,57.3-36.6,70-60.9c-2-0.7-6-0.7-7.6-0.2c-1.9-0.1-75.5-5.5-84.1-8.7
		c-7.5-2.7-36.2,2.3-49.6,7.1C318,373.9,339.6,396.1,376.8,410.8z"/>
	<path id="path21" class="st5" d="M322.2,373.7c1.2-0.4,3.5-0.3,4.4-0.1c1.1,0.2,1.2,0.3,1.6-0.9c0.4-1.1,1.2-0.9,1.9-0.3
		c0.7,0.6,2.4,0.3,3.1-0.7c0.7-0.9,0.9-0.9,1.5-0.2c0.7,0.7,1,0.5,1.6,0.3c0.7-0.2,1.8-0.9,2.4-2c0.6-1,1.4-1.4,1.9-0.9
		c0.5,0.6,1,0.9,1.6,0.8s0.9,0.6,0.8,1.4c-0.1,0.9,0.3,1,1.9-0.3c1.4,1.4,1.9,0.9,1.9-0.7c0-1.5-0.4-7.1-1-7.9
		c-0.6-0.8-1.2-3-1.2-4.7c-0.2-3.2-0.2-3.4-4.1-5.4c0-1.1-0.3-1.6-3.1-1.4c0.1-0.4-0.4-1.5-1-2c-0.6-0.5-0.7-0.7-0.4-2
		c1.2,0.1,2.4-0.1,3.1-1c0.7-1,2.9-0.8,4.2-0.2c1.3,0.6,3.1,0.7,5.7,0.3c1-0.8,2.6-1.6,4.3-2.6c1.7-1,2.2-1.3,2.3-2.7
		c0.2-3.4-1-7.3-1.9-9.1c-1-1.8-1.2-4.1-2.6-7c-1.5-3.1-1.4-3.9-3.1-5.8c-0.4-0.5-1-1-1.1-2c-0.1-1-0.5-2.5-1.6-3.5
		c-2.9-2.6-4-11.1-5.2-17.4c-0.7-3.6-0.2-12.1-1.7-13.4c-2.6-2.1-3.8-1.7-5.6-2.4c-1.2-1.7-1.8-5.1-3-8.2c-1.8,0.3-3.1,2.2-4.3,2.9
		c-1.2,0.7-1.4,0.7-1.4,2.4c0,1.7-1,4.1-2.7,6.8c-1.7,2.7-4.6,1.9-7,5.9c-5.3-6.4-5.4-8.2-5.8-10c-0.4-1.8-1.2-2.2-4.2-4.8
		c0-0.8-0.4-3.8-0.1-5.5c-2.2-1.8-3.8-1.5-4.9-0.2c-1.1,1.3-1.8,3.3-3.5,4.1c-1,1.2-3.9,4.3-6.3,8.1
		C292,314.4,299.5,347.3,322.2,373.7L322.2,373.7z"/>
	<path id="path23" class="st6" d="M464.5,255.7c0.1-22.5-1.2-44.4-0.6-63.6c-29.2-13-67.6-15.6-87.1-15.6c-19.6,0-58,2.7-87.1,15.6
		c0.6,19.2-0.7,41.1-0.6,63.6H464.5z"/>
	<path id="path27" class="st7" d="M293.8,281.8c1,1.5,2.7,4.1,2.9,5.6c0.7-1.4,1.2-2,1.3-2.9c0.1-0.9,1.2-2.5,0.8-3.4
		c-0.4-0.9-0.7-1.6,0.4-1c1.1,0.7,0.8,1.8,0.6,3.5c-0.6,4.7-2.6,5.6-2.9,8.8c2.8,6.6,0.7,9,3.8,15.5c0.5,0.3,1.8-0.2,2.1-0.1
		c1.6-1.1,2.8-0.7,5.1-0.3c2.3,0.5,3.6,2.1,3.6,3.5s0,1.8,0.5,2.7c0.5,0.9,1.4,2.2,1.2,3.1c-0.2,0.9,0.2,1.5,0.5,2
		c0.3,0.5-0.1,1.5-0.4,2.2c-0.3,0.7-0.2,1.5,1,3c1.2,1.4,3.8,7.4,3.8,10.9c0,3.5,0.2,5.1,1.6,5.8c1.4,0.7,1.9,1.2,1.7,2.8
		c-0.2,1.5,0.7,9.4,0.9,10.7s0.7,1,1.2,1.6c0.6,0.7,1,1.4,2.9,1.4c1.9,0,3.8-0.3,5-0.1c1.7,2.4,2.8,5.6,3.2,7.6c0.4,2,0.4,4.7,1,4.7
		s1.3,0.1,1.2-2.4c-0.2-2.5-0.4-2.9-1.2-4.1c-0.9-1.2-1.3-1.8-0.9-2.6c0.5-0.8,0.6-2,0.4-3c-0.2-1-0.5-2.4,1.2-0.5
		c1.6,1.9,2.1,2.4,2.6,3c0.5,0.7,0.7,1.9,0.6,3c-0.1,1.1,0.1,1.6,0.8,1c0.7-0.6,1.5,0.4,1.2,1.6c-0.4,1.2,0.1,2,1.2,2.4
		c1.2,0.4,1.6,0.7,1.9,1.5c0.3,0.9,1.2,1.2,1.2-0.5c0-1.7-0.7-5.3-1.2-6.5c-0.5-1.1-0.9-3.6-1-5c-0.1-1.4-0.4-1.8-1.1-2.1
		c-0.7-0.3-1.2-0.8-1.3-1.4c-0.1-0.7-0.7-0.9-1.1-0.9c-0.4,0-0.8-0.3-1.1-0.8s-0.5-0.5-1-0.6c-0.5,0-1.2,0.2-1.5-0.5
		c-0.2-0.8-0.6-1.9-1.1-2.5c-0.5-0.6-0.9-0.8-1-3c0-2.1-0.1-2.4-0.8-3.2c-0.7-0.8-1.8-2.8-2.3-3.6c-0.5-0.9-1-1.7-1,0.1
		c0,1.8,0,2.8,1.1,3.4c1.2,0.7,1.4,0.7,1,1.6c-0.5,1,0,1.6,0.2,2.3s0.6,1.3,0,2c-0.6,0.7-1.2,0.5-1.1-0.6c0.1-1-0.3-2.3-0.8-3.1
		c-0.5-0.9-0.9-1.4-1.4-1c-0.6,0.5-1.1-0.1-0.7-0.5c0.4-0.4,0.3-0.7,0-1s-0.4-0.6,0.1-1.1c0.5-0.6,0.5-0.9,0.2-2.2
		c-0.3-1.3-2.4-8-3.4-9.5c-1-1.5-0.9-2.7,0.4-1.1c1.2,1.5,2.3,2.9,2.4,4.1c0.1,1.2,0.4,2,0.8,2.5c0.4,0.5,0.7,0.3,0.9-0.8
		c0.2-1,1-0.7-0.4-2.7c-1.3-2-3.8-5.3-4.8-11.3c-1-6-1.3-10-2.3-11.6c-1-1.6-1.2-2-1.3-3.5c-0.1-1.5,0-3-0.7-4.2
		c-0.7-1.1-1.2-1.3-1.2,0.4c-0.1,1.7,0.1,5.5,0.6,6.2c0.5,0.7,0.2,2.4,0.1,3.3c-0.1,1-1.6,1.9,1.5,3.8c1.2,0.8,1.1,1.8,0.9,2.5
		c-0.2,0.7-0.4,0.6-1.1-0.5c-0.7-1-1.3-1.9-2-2.5s-0.8-1-0.7-2.3c0.1-1.3,0.4-2.3,0-2.8c-0.4-0.5-0.6-0.1-0.8,0.7
		c-0.2,0.8-0.4,2.9-0.8,3.4s-0.6,0.2-0.9-1c-0.3-1.2,0.1-3.1,0.8-5.3c0.7-2.2,1.1-4.5,0.5-7.3c-0.6-2.9-0.3-3.7-2.5-6.1
		c-2.2-2.4-4.7-4.7-5.8-7.6c-1.1-3-1.2-5.5-2.4-6.9c-1.1-1.3-2.8-3-3.8-3.5c0-2.3,0-3.3,0-4.4c0-1-0.5-1.7-1.7-1.5
		c-1.2,0.2-2,1.2-2.8,2.7c-0.8,1.4-1.3,0.8-2.4,3.2C295.3,277.9,293.8,279.1,293.8,281.8L293.8,281.8z"/>
	<path id="path29" class="st7" d="M300.7,309.7c0.8,0.5,1.5,0.8,2.7,0.2c1.2-0.6,2.5-2.2,4.1-0.6c1.5,1.6,2.4,4.3,2.4,6.4
		c0,2.1,0,6,2.4,8.2c2.4,2.2,3.6,4.5,3.7,7.3c0.1,2.9,1.2,7.2,1.4,8.4c0.3,1.1,1,2.5,1.7,3.2c0.8,0.8,1.3,3,1.4,5.2
		c0.1,2.3-0.3,3.9,0,5s0,2.1-0.9,1.5s-1.1-0.9-1.5-1.8c-0.5-1-1.1-0.8-0.6,0.7c0.5,1.4,1.9,2.8,3.2,2.8c1.2,0,1.6,0.2,2.4,1
		c0.8,0.8,0.9,1.1,2.2,1.1c1.3,0,1.5,0,2.8,0.4c1.2,0.4,1.2,0.2,1.9,0c0.7-0.2,1.3,0.4,1.8,1.6c0.5,1.2,1.6,4.7,1.6,5.6
		c0,1,0,1.9,0.7,2.9c0.7,1,0.5,1.9-0.3,1.3c-0.8-0.6-0.8-0.4-1.3-0.3c-0.6,0.1-1-0.2-1.7-0.7c-0.8-0.5-0.3-0.4-1.1-1.5
		c-0.8-1.1-1.2-1.5-1.2-0.7c0,0.9-0.1,1.9-0.7,1.4c-0.6-0.5-0.9-0.5-1.3,0c-0.5,0.5-0.7,0.9-1.2-0.1c-0.6-1-1.2-1-1.8-1.1
		c-0.6-0.2-0.6-0.2-0.9-1c-0.3-0.9-1.2-1-1.9-1c-0.8,0-1.2-0.4-1.2-1c-0.1-0.6-0.6-0.9-1-1.2c-0.4-0.3-0.2-1-0.3-1.6
		c-0.1-0.7-0.7-0.4-1.1-0.6c-0.4-0.2-0.7-0.1-0.7-1c0-1-0.4-1.2-0.7-1.9c-0.3-0.7,0-1.3,0.2-2.1c0.2-0.8,0.1-1.2-0.5-1.9
		c-0.6-0.7-0.1-1.3-1.6-2.7c-1.5-1.3-2.3-0.2-2.8-3.3c-0.5-3.1-1.4-9.6-2.3-10.7s-1.4-1.8-2.3-2.1c-0.9-0.3-1.4-0.1-1.5-1.9
		c-0.1-1.8-0.7-4.1-1.8-5.2c-1.2-1.1-1.6-1.5-2.2-2c-0.6-0.5-0.8-1.3,0-3c0.8-1.6,0.5-3.8,0.4-4.9c-0.1-1-0.4-2.4-0.2-3.5
		c0.2-1.1,0.1-2.6-0.2-3.3C300.6,310.5,300.2,310.3,300.7,309.7L300.7,309.7z"/>
	<path id="path95" class="st8" d="M329.8,361.8c-0.6,1.1-1.2,0.8-1.8,0.2c-0.6-0.6-1.2-0.6-1-1.6c0.3-1,0.2-1.2-0.6-1.8
		c-0.1-0.1-0.2-0.1-0.3-0.2c-0.2,0-0.5,0-0.9,0c-1.3,0-1.4-0.4-2.2-1.1c-0.2-0.2-0.3-0.3-0.5-0.4c0,0.2,0,0.4,0,0.7
		c0,1,0,0.9-1.1,1.1c-1.1,0.3-0.9-1-1.1-1.9c-0.1-0.2-0.1-0.4-0.2-0.5c-1.2-0.2-2.4-1.4-2.8-2.7c-0.5-1.4,0.1-1.6,0.6-0.7
		c0.5,1,0.7,1.2,1.5,1.8c0.9,0.6,1.2-0.4,0.9-1.5c-0.1-0.4-0.1-0.8-0.1-1.3c-0.2-0.4-0.5-0.7-0.9-0.8c-1.5-0.7-1.1-0.9-1-2.1
		c0.1-1.2-0.2-1.2-1.2-0.6c-1,0.7-1.1-0.1-1.1-2c0-1.9-1.2-1.9-1.5-0.6c-0.3,1.3-0.8,0.5-1.3-1.4c-0.6-1.9-1.3-2.4-1.4-0.6
		c-0.1,1.5-0.5,1.9-1.5,1c0.2,1.1,0.3,2.1,0.5,3c0.5,3.1,1.2,2,2.8,3.3c1.5,1.3,1.1,2,1.6,2.7c0.6,0.7,0.7,1.1,0.5,1.9
		c-0.2,0.8-0.5,1.4-0.2,2.1c0.3,0.7,0.7,1,0.7,1.9c0,1,0.3,0.9,0.7,1c0.2,0.1,0.6,0.1,0.8,0.1c0.2-0.3,0.5-0.7,0.8-1
		c1.2-1.1,2.9,0.1,3.5,1.5c0.6,1.4,1.2,1.8,2.1,0.7c0.9-1.1,0.6-1,1.5,0.1c1,1,1.3,0.9,1.3,0.9s1-0.4,1.6,0.2
		c0.7,0.6,1.1,0.5,2.3-1.3C332.2,360.1,330.4,360.7,329.8,361.8L329.8,361.8z"/>
	<g id="g187" transform="translate(-8e-5,-2.56e-4)">
		<path id="path97" class="st9" d="M330.7,375.1c2.3-0.2,8.5-2,9.2-2.6c1.5,1,4.2,2.5,5.4,2.5c-2.2,0.5-3.6,0.2-4.2-0.2
			c0.3,0.7,1.1,1.7,1.5,1.8c-2.1-0.1-4.5-0.6-5.3-1.3C335.5,376.1,332.4,376.3,330.7,375.1L330.7,375.1z"/>
		<path id="path99" class="st9" d="M334.8,378c0.8,0.2,4.9,0.9,5.4,0.9c-1.3,1.1-0.2,2.2,2.1,2c-1.1,0.1-2.3,0.6-1.5,0.7
			c2,0.4,7.3-1,8.3-1.6C347.3,382.4,338.5,384.5,334.8,378L334.8,378z"/>
		<path id="path101" class="st9" d="M338.5,383.8c1.1-0.6,3.8-0.4,5.1,0.2C342.2,384.6,339.3,384.6,338.5,383.8z"/>
		<path id="path103" class="st9" d="M342.6,383.7c2-0.3,7.5,1,9.5-0.2c-0.7,1.8-4.2,2-5.4,1.6c-1.2-0.4-2.3-0.9-3.2-0.8
			C344,384.1,343.3,384,342.6,383.7L342.6,383.7z"/>
		<path id="path105" class="st9" d="M344.6,386.4c1.5,0.2,6.8-0.4,8.4-1c1.7,0.6,5.1,1.5,5.9,1.4c-1.6,1-4.8,0.4-5.8,0
			C350.3,387.7,348,388,344.6,386.4z"/>
		<path id="path107" class="st9" d="M347.2,387.3c2.1,0.5,3.9,0.1,6-0.6c0.7,0.3,2.2,0.6,3.6,0.5c1,0.5,2.3,1.3,3.5,1.4
			c-1.3,0.5-6,0-7-0.5c-2.4,0-6.5,0.6-7.5,1.4C345.8,388.9,346.2,388,347.2,387.3z"/>
		<path id="path109" class="st9" d="M344.6,376.6c1.7,0.5,7.7,0.3,10.7-1.1c1.2-0.6,2,0.4,0.6,0.9c-5,1.7-8.9,2.4-11.8,0.9
			C343,376.5,342.9,376,344.6,376.6L344.6,376.6z"/>
		<path id="path111" class="st9" d="M374.1,368.5c-7.4,3.4-12.3,4.5-22.5,1.3c-1-0.3-1.6,0-0.6,0.7c1.1,0.7,6.7,2.2,8.1,2.3
			c1.3,0.1,0.9,0.7,0,1c-0.8,0.2-1.1,0.8,0,0.4c1.1-0.4,7.3-0.6,9.8,0.7c1.1,0.6,1.4,0.5,1.3,0c-0.1-0.4,0.5-0.7,1.3-0.8
			c0.8-0.1,1.3-0.4,0.7-0.6c-0.6-0.2-0.7-0.4-0.2-0.6c0.5-0.2,0.5-0.5-0.2-0.6c-0.7-0.1-1.2-0.3-0.5-0.7c0.7-0.3,1.7-0.6,2.4-0.7
			C373.8,370.3,373.5,369,374.1,368.5z"/>
		<path id="path113" class="st9" d="M361.8,369.3c4.2,0.3,12-1.6,16.1-5.6c1.4,0.9,3.5,1.8,4.5,2c1.1,0.2,2,1.1,0.4,1.1
			c-1.6,0-3.9-0.7-5-1.1c-5.5,3.3-11.9,4.4-15.9,4.1C360.7,369.7,360.4,369.2,361.8,369.3z"/>
		<path id="path115" class="st9" d="M355.1,357.4c-0.6,0.1-3,0.7-3.7,0.6c-0.7,0-1.3,0.1-1.3,0.6c0,0.5,0.2,0.8-0.8,0.7
			c-1-0.1-1.9,0.3-2.1,0.6s-0.4,0.6,0.6,0.7c1,0.1,1.5,0.2,2.7-0.3c1.2-0.5,2.3-1.3,3.5-1.4C355.3,358.8,356.5,357.2,355.1,357.4z"
			/>
		<path id="path117" class="st9" d="M351.7,360.4c1,0.7,6.2,2.4,8.1,2.3s1.5,0.7,0.1,1c-2.9,0.6-6.5-0.6-8.9-2.6
			C349.7,360.2,350.9,359.9,351.7,360.4L351.7,360.4z"/>
		<path id="path119" class="st9" d="M376.2,362.9c-4,1.3-8,0.8-9.6,0.4s-3.1-0.5-2,0.5c1.1,1,4.7,1.8,6.7,1.2
			c-7.1,1.6-9,1.5-10.8,1.2c-1.8-0.3-5.1-0.2-6.5-0.1c-1.1,0.1-2.5,0-3.1-0.4c-0.6-0.4-0.8-1.1,1.1-0.9c1.9,0.2,2.1-0.2,0.5-0.4
			s-3.9,0.4-1.7,1.8s7.1-0.1,10.1,0.8c3.1,0.9,9.6,1.5,15.8-3.5C376.9,363.2,377.4,362.5,376.2,362.9L376.2,362.9z"/>
		<path id="path121" class="st9" d="M367,359c-0.8,0-2.3-0.5-3-0.8c-0.8-0.3-1.9-0.4-1.1,0.7c0.8,1.1,4.4,1.7,5.6,1.2
			c1.2-0.5,0.7-1.1,2-0.3c1.2,0.8,2.5,1.3,3.5,1.3s1.2,0,0.2-0.6c-1-0.6-1.5-0.7-1.6-1.2c-0.1-0.5-0.2-0.8,0.7-0.5
			c0.9,0.3,2,0.8,2.7,0.4c0.7-0.4,2.1-1.2,3.3-1.2l0.3-0.7c-1.7-0.1-2.8,0.4-3.3,0.6c-0.5,0.2-1.3,0.3-2.3,0.1
			c-0.9-0.1-2.1-0.2-2.4-0.5s-0.3-0.4,0.5-0.6c0.8-0.1,1-0.7,0-0.5c-1.1,0.2-3.9,0.1-5.4-0.4c-1.5-0.5-2.1-0.5-2.7-0.3
			c-0.6,0.2-0.5,0.9,0.4,1c0.9,0,3,0.2,3.7,0.9s0.6,0.7-0.2,0.4C366.9,357.7,365.4,357.9,367,359L367,359z"/>
		<path id="path123" class="st9" d="M401.7,356.4c-2.9,2.1-6.3,2.6-10.5,2.9c-1.2,0.1-0.8,0.4,0.2,0.5c4.3,0.4,9.3-1.1,10.9-2.9
			C402.9,356.4,402.8,355.6,401.7,356.4z"/>
		<path id="path125" class="st9" d="M382.1,361.2c1.2,0,5.6,1.1,7,1.6c1.1-0.1,1.3-0.3,1.2-0.7c-0.2-0.4-0.3-0.8,1.6-0.7
			c1.9,0.1,6.3,0,7.1,0c0.7-0.3,2.2-1.4,2.8-1.5c-1.7,0.1-8.9,0.5-9.8,0.4c-0.9-0.1-1.4,0-2,0.3c-0.6,0.3-0.9,0.5-1.6,0.2
			c-0.7-0.3-2-0.7-2.7-0.2C384.9,361.1,383.4,360.7,382.1,361.2L382.1,361.2z"/>
		<path id="path127" class="st9" d="M398.9,361.5c0.7-0.3,2.2-1.4,2.8-1.5c1.2-0.1,2.7,0.4,3.4,0.5s1.4,0,0.9-0.6
			c-0.5-0.5,0-1.4,1.9-1.2c2,0.2,3,0.6,4.9,0.4c1.9-0.2,2.8,1.2,6.4-0.2c-0.3,1.4,0.4,1.5,1.1,1.2c0.7-0.3,1.4-0.2,2.6,0.7
			c1.2,0.9,8.2,1,9.8,0.7c1.6-0.3,2.5,0.6,1.2,1c-1.2,0.4-1.5,1-1.2,1.3c0.3,0.4,0.6,0.9-1,0.7c-1.5-0.2-1.8,0.3-2.6,0.9
			c-0.8,0.6-1,0.8-3.1,0.4c-2.1-0.4-2.5-0.1-3.6,0.1c-1.2,0.2-1.4,0.2-2.6-0.2c-1.2-0.4-3.6-0.8-5.2-0.3c-1.5,0.5-2.7,1-4,0.6
			s-1.4-0.2-0.6-1c0.9-0.9,1.1-0.8,2.7-1c1.6-0.2,2.9-0.7,1.7-1.3s-1.5-0.6-3.1,0.2c-1.5,0.8-2.3,1.2-4,0.3c-1.7-1-2.6-0.8-3.7-0.5
			C402.5,362.9,400.6,362.2,398.9,361.5L398.9,361.5z"/>
		<path id="path129" class="st9" d="M404.7,364.3c-2.2,0.3-2.8-1.1-5.1-0.8c-0.8,0.1-2.1,1-0.3,0.9c1.8-0.1,3.7,0.8,5.4,0.7
			C406.5,364.9,405.7,364.2,404.7,364.3z"/>
		<path id="path131" class="st9" d="M402.1,366c1.2-0.4,3.6,0.4,4.6,0.2c1-0.2,2,0.4,0.9,0.8c-1.1,0.3-3.6-0.6-4.8-0.3
			C401.7,367,400.6,366.6,402.1,366L402.1,366z"/>
		<path id="path133" class="st9" d="M379.2,372.1c1.6,0.1,7.3-0.2,9.5-5c0.2-0.4,0.3-0.5,1.1,0s3.4,2,8.3,2.5
			c1.4,0.1,2.9,0.8,0.1,0.6s-7.2-1-8.7-1.9c-2.5,3.9-7,4.4-10.3,4.3C377.2,372.6,377.7,372.1,379.2,372.1L379.2,372.1z"/>
		<path id="path135" class="st9" d="M391.5,365.7c-0.8,1-3.4,2.9-4.6,3c-1.2,0.1-4.8-0.2-5.7-0.6c-0.9-0.3-2-0.2-0.7,0.7
			c1.3,0.9,4.5,1.5,5.8,1.2c1.3-0.3,2.8-0.7,3.8-0.1c1,0.6,2.9,1.8,4,1.6c1.1-0.2,3.4-0.2,4.1,0.1c0.7,0.3,2,1.3,0.1,0.8
			c-1.9-0.6-3.4-0.1-4.3-0.5c1,1.3,3.1,3.5,5,3.5c0.4,0,0.7,0.8-0.2,1.2c0.9,0.4,3,0.8,4.1-0.2c-0.3,0.4-0.1,0.6,0.3,0.9
			c0.5,0.2,1.1,0.6,0.2,0.7s-2.8,0.3-3.4,0.1c1.9,1.2,6.7,3.1,11.7,2.1c0.9-0.2,1.4-0.6-0.1-0.5c-3.2,0.1-3.4,0-3.9-0.3
			c-0.6-0.3-0.5-0.6,0.4-0.9c0.9-0.3,3.2-0.6,4.2-0.6s1.9-0.4,0-0.4c-2,0-4.4,0-5.3-0.3c-1-0.3-1.7-0.8-0.7-1.4
			c1-0.7,2.1-0.5,2.5-1.1c-3.2,0-7.1-1.7-4.9-3.2c0.5-0.4,0.3-0.4-0.5-0.5c-0.8-0.1-3.2-0.8-4.2-1.3c-1-0.6-0.3-1,0.5-1.2
			C397.8,368.5,394,367.5,391.5,365.7L391.5,365.7z"/>
		<path id="path137" class="st9" d="M419.7,365.6c-1.7,1.3-5,1.8-6.4,1.8c-1.4,0-1.6,0.5-0.5,0.6c1.1,0.1,2.3,0.3,2.8,0.1
			c0.5-0.1,0.8-0.2,1.5,0.1c0.7,0.3,2.3,0.5,3.6,0.1c1.3-0.4,3.5-0.6,4.5-0.6c0.9,0,1.9,0.1,0.1-0.4c-1.8-0.5-4.8-0.1-5.5,0
			c-0.7,0.2-2.7,0-1.6-0.3c1.1-0.3,2-0.9,2.5-1.3C420.2,365.8,420,365.7,419.7,365.6L419.7,365.6z"/>
		<path id="path139" class="st9" d="M418.8,369.3c-1.5,1.1-3.6,2.1-5.9,2.2c2,0.7,3.7,2.8,5,2.7c-0.6,0.4-1.4,1-2.2,1
			c1.2,0.3,3.4,0,5.1-1c2.9,0.8,6.6,0.3,7.9-0.8c-1.9,0-4.1-0.7-5.1-1.5c0.9,0,1.8-0.6,2.2-1.1C423.6,371.2,419.9,370.2,418.8,369.3
			L418.8,369.3z"/>
		<path id="path141" class="st9" d="M415.7,375.2c0.8-0.1,1.6-0.7,2.2-1c-1.6,0.5-8.5-0.6-10.6-2.4c-2.1-1.8-2.1-0.4-0.6,0.9
			C408.2,374,410.7,375.9,415.7,375.2z"/>
		<path id="path143" class="st9" d="M420.8,379.6c-0.9,0.5-5,0.8-6.3,0.5c-1.3-0.3-1.9-0.1-1.6,0.4c0.3,0.5,0.5,1-0.6,0.9
			c-1.1-0.1-3.1,0.1-3.9,0.4c-0.8,0.3-1.8,1-0.1,0.7c1.7-0.3,3.3-0.6,4.6-0.3c1.3,0.3,5.9,0.4,6.8,0c0.9-0.4,0.3-0.4-0.1-0.4
			s-0.6-0.3,0-0.6C420.2,380.9,420.7,380.1,420.8,379.6L420.8,379.6z"/>
		<path id="path145" class="st9" d="M380.9,374.1c-1.7,0.8-7.5,2.3-9,2.4c-1.9,0.9-3.5,1.3-4.4,1.3c0.7,0.6,3.3,1.1,4.3,0.9
			c-0.6,0.6-1.9,1.2-2.4,1.5c1.5-0.2,3.4,0.2,4.1,0.3c-2,1.1-4.8,1.5-6.2,1.3c0.5,0.7,1.2,1.3,2,1.3c-1.8,0.5-4,0.5-5.2,0.1
			c0.5,1,1,1.5,1.6,1.6c-1.5,0.2-3.5,0.5-5.1-0.5c1.2,1.6,4,2.2,8.2,1.7c4.1-0.5,7.6-2.3,8.5-3c-1.7,0.2-4,0.3-5.2,0.1
			c2.3-0.6,7.3-2.7,8.2-3.5c-1,0-1.9-0.3-2.6-0.8c1.3,0.2,6-0.4,7.5-0.9c-1.7-0.4-2.8-1.4-3.3-2.1c6,1.9,12.8,1.3,16,0.5
			c0.8-0.2,0.9-1.2-0.7-1c-2.7,0.2-7.9-0.6-9.2-1.2c1.2,1,2.8,1.5,3.8,1.7C389.4,376.4,386,376.9,380.9,374.1L380.9,374.1z"/>
		<path id="path147" class="st9" d="M369.4,380.2c0.5-0.3,1.8-1,2.4-1.5c-1.1,0.3-3.6-0.3-4.3-0.9c1,0,2.5-0.5,4.4-1.3
			c-3.5-0.1-5.9-0.1-7.1-0.8c-1.2-0.7-3.5-0.5-4.4-0.3c-0.9,0.2-0.6,1.6,3.1,1.2c-1.5,1-5.7,1.4-7.2,1c0.4,1.2,0.7,2.5,0.3,3.1
			c2,1.1,7.3,2.6,9.9,2.4c-2.3-0.9-3.6-1.8-1.6-2C366.7,381,367.7,380.7,369.4,380.2L369.4,380.2z"/>
		<path id="path149" class="st9" d="M363.4,386.4c4.6-0.4,10.7-0.5,15.6-4.6c1.2-1,2.1-0.7,0.9,0.4c-2.6,2.3-9,5.4-15.2,5.5
			C362.3,387.8,361.1,386.6,363.4,386.4z"/>
		<path id="path151" class="st9" d="M397.8,378.9c-1.2,0.4-4.4,1-5.3,0.8c-1-0.1-2.4-0.2-3.1,0.3s-0.8,0.8,0.2,0.9
			c1.1,0.1,2.4,0.2,3.1,0.1c-0.9,0.5-1.4,1.1-1.6,1.4c1.5-0.4,4.4,0.3,5.2,0.8c-0.6,0.2-1.3,0-1.9-0.3c2.6,2.7,10.3,2.7,11.5,2.2
			c-0.6,0.4-1.1,0.9-1.7,1c2.2,0.4,4.7,0.3,7.1-1.1c-0.8,0.1-3.3-0.1-3.9-0.1c0.5-0.5,1.2-0.9,1.9-1.1c-1-0.2-4-0.1-4.7,0.3
			c0.3-0.6,0.8-1.3,1.4-1.5c-3.8,0-8.4,0-10.1-1c2.7,0.3,5.7-1.3,6.9-1.3C400.7,380.2,398.4,379.7,397.8,378.9L397.8,378.9z"/>
		<path id="path153" class="st9" d="M388.2,380.9c-1.9,0.4-4.7,1.1-5.5,1.6c-0.8,0.4-1.6,0.7,0.1,0.7c1.7,0,6.2,0.2,7.2,0.3
			c-2.5-0.4-6-0.5-6.7-0.5s-1.4,0-0.2-0.4C384.4,382.2,386.1,381.4,388.2,380.9L388.2,380.9z"/>
		<path id="path155" class="st9" d="M384.4,385.4c0.7,0,3.6,0,4.7-1c1.2,0.9,3.5,2.2,5,2.2c1.5,0,1.3,0.4,0,0.5
			c-1.3,0.1-3.8-0.6-5.1-1.6C387.3,386.1,385.9,385.6,384.4,385.4L384.4,385.4z"/>
		<path id="path157" class="st9" d="M362.2,398.2c3,1.1,6.9,2,9.8,1c1.6,1.4,5,1.5,6.8,1.1c1.8-0.4,3.5-0.6,5.5,0.1
			c2,0.7,6.1,0.7,7.3,1.7c-1.1,0.1-3.3,0-3.8,0.1c-0.5,0.1-0.2,0.5,0.7,1c-3.3-0.2-8.9,1.2-10.6,2.7c0.6-1.5,2.5-3.5,5.6-3.5
			c-1.7-0.6-7.2-0.7-9,0.4c-0.5-0.6-1.2-1.5-1.2-1.9C370.2,402.7,364.5,400.3,362.2,398.2L362.2,398.2z"/>
		<path id="path159" class="st9" d="M354.5,392.9c3.5-0.5,6-1.6,7-2.7c0.6,0.6,3.2,1.1,6,0.3c-0.6,0.4-0.6,1.2-0.4,1.7
			c-1.9,0-5.4,1-6.6,1.6c-1.2,0.6-4.7,1-5.9,0.4C353.6,393.5,353.5,393,354.5,392.9L354.5,392.9z"/>
		<path id="path161" class="st9" d="M367.2,392.1c-1.9,0-5.4,1-6.6,1.6c0.2,0.5,0.4,1.2,0.4,1.8c3.5-1.2,11.4-2,14.4-1.5
			c-1.4,0.1-4.2,1.6-5.7,1.8c3.7-0.3,7.4,0.5,8.3,0.7c1,0.2,1.2,1,0.4,1.6s-1.1,0.8,0.5,0.8c1.5,0,4.7-0.1,6.1-1.5
			c-0.6-0.6-2.1-0.4-2.5-0.8c1-0.3,2.2-1,2.6-1.6c-2.6,0-3.6-0.1-4.4-0.3c-0.9-0.2-1.5-0.4-0.4-1c1.1-0.6,1.5-1,1.9-1.4
			c-1.9,0.5-4.8,1-7.2-1c0.9,0.2,3.1,0.1,3.8-0.2c-0.8-0.4-1.5-0.8-2.2-0.8c2-1,5.9-1.8,10.6,0.1c2.4-0.2,5-0.1,6.8,0.4
			c0.8-0.8,2.4-2.6,3.3-3c-5.7,0.5-15.8-0.6-15.6-3.5c-1.8,2.4-6,3.7-7.9,3.3c-0.2,0.9,0.6,1.9,1.2,2.5c-1.9,0.4-5.2,0.7-6.7,0.4
			c0.9,0.9,2.5,1.6,3.5,1.5C369.9,391.9,368.8,392.3,367.2,392.1L367.2,392.1z"/>
		<path id="path163" class="st9" d="M379,398.9c1.5,0,4.7-0.1,6.1-1.5c-0.6-0.6-2.1-0.4-2.5-0.8c1-0.3,2.2-1,2.6-1.6
			c4-0.3,7.6-0.1,9.4-0.7c1.7-0.5,6.1-0.2,7-0.5c-3.8,0.6-4.6,0.9-4.8,1.6c-0.2,0.6,1.2,1.1,2.2,1.1c-1.7-0.1-3.9,1.7-4.1,2.4
			c-2.3-1.3-3.4,0.2-3.6,0.8c-1-0.4-4.1-0.3-5.8,1.1c-2.1-0.6-3.5-1-5.6-0.6C381.1,399.9,380.9,399,379,398.9L379,398.9z"/>
		<path id="path165" class="st9" d="M397.4,387.7c1.3,0,4.1,0.1,5.1,0c-0.7,0.3-1.5,1-1.7,1.2c3.3-0.4,7.7-0.6,9-0.4
			c-1.6-0.2-3.2,0.8-4,1.3c-0.8,0.5-0.3,0.9,0.8,1c1.1,0.1,2.6,1,0.6,0.7c-2-0.3-6-0.3-7-0.1c-1,0.1-1.5-0.3-0.1-0.5
			c1.4-0.2,2.3-0.7,3-1c-1.2,0.3-3.4,0.3-4,0.1c-0.7-0.2-1.1-0.6-0.3-0.8c0.8-0.2,0.2-0.5-0.6-0.4c-0.8,0.1-2.9,1-4,2
			C395.4,389.5,396.5,388.3,397.4,387.7L397.4,387.7z"/>
		<path id="path167" class="st9" d="M382.8,389.9c1.6,1.8,3.5,2.8,6.4,2.9c0.6,0,1.8,0.9,0.3,0.9c-4,0.1-6-0.8-7.8-3.4
			C381.3,389.7,382,389,382.8,389.9z"/>
		<path id="path169" class="st9" d="M433.9,368.2c-1.2,0.8-2.8,2.2-1.7,4.2c0.1-0.1,0.2-0.1,0.4-0.2c4.7-5.6,8.7-11.6,12.2-17.7
			c0-0.2,0.1-0.4,0.1-0.6c-1.3,1.1-3.5,2.3-4.3,2.6c0.6,1.5-2.1,3.5-3.5,4.1c0.6,1,0.4,2.4-0.9,2.7c0.3,0.9-0.7,0.9-1.8,1.3
			s-1.7,0.9-2.1,1.4c0.6-0.3,1.5-0.6,2-0.5c0.5,0.1,0.6,0.9-0.3,1c-0.9,0.2-1.4,0.7-1.7,1C433.3,367.1,435.1,367.4,433.9,368.2
			L433.9,368.2z"/>
		<path id="path171" class="st9" d="M349.3,346.5c1.4,1,4,2.7,7.3,2.4c1.6,1.3,4.2,2.4,5.3,2.6c-2.2,0.9-4.6,1.7-5.2,2.4
			c-1-1-2.3-0.8-2.6-1.3c-1,0.8-0.8,1.2-0.2,1.6c0.6,0.4,5.5,1.2,6.7,0.9c1.2-0.3,1.5,0.7,0.5,1c-2.6,0.9-7.6,0-9.4-2.7
			c-1.7-2.8-3.2-3.8-7.9-1.3c-0.5-1.3-0.5-1.7-1.4-1.7s-2.6-1.2-1.3-1.1C342.4,349.3,346.2,348.8,349.3,346.5L349.3,346.5z"/>
		<path id="path173" class="st9" d="M350.5,352.6c-0.8,0.2-3.1,1.4-3.9,1.5c-0.8,0.1-2.3,1.2-0.8,1.3c1.5,0,3.4-1.6,4.5-1.7
			C351.3,353.6,351.4,352.4,350.5,352.6z"/>
		<path id="path175" class="st9" d="M356.8,357.1c0.1,0.5,0.1,1,0,1.3c-0.1,0.3-0.1,0.8,0.5,0.3c0.6-0.5,1-1,1.6-0.7
			c0.6,0.3,2.2,0.3,2.9,0.2c0.7-0.1,1-0.2-0.1-0.7c-1.1-0.4-2.1-0.6-2.7-0.5c-0.6,0-1.3-0.1-1.8-0.3
			C356.8,356.5,356.6,356.6,356.8,357.1L356.8,357.1z"/>
		<path id="path177" class="st9" d="M379.5,357.2l-0.3,0.7c1.8,0,6.1,0.4,7.5,1.2c1.3-1,1.1-1.4,2.1-1.2c1,0.2,2.2,0.5,2.7,0.2
			s0.9-0.2,1.5-0.1c0.6,0.1,1.8-0.1,2.5-0.6s2.2-1,3.1-1c0.9,0,1.9-0.2,0.3-0.4c-1.6-0.2-4,0.2-4.8,0.5c-0.8,0.3-3.3,0.5-4.7,0.5
			c-1.4,0-3.4,0.7-5,0.3C382.7,356.9,380.5,357.2,379.5,357.2L379.5,357.2z"/>
		<path id="path179" class="st9" d="M406.8,356.6c2.1,1,6.4,1.9,9.7,1.7c0.6,0,1.7,0.6,0.3,0.7c-3.7,0.3-7.1-0.2-10.2-1.9
			C405.7,356.6,406,356.2,406.8,356.6L406.8,356.6z"/>
		<path id="path181" class="st9" d="M409,356.5c3.3-0.1,5.7,0,6.7,0.9c1.9-0.6,5.2-0.9,6-0.8s1.6-0.2-0.1-0.6
			c-1.8-0.4-5.9-0.6-7.2-0.3c-1.3,0.2-5.3,0.4-6.7,0.2C408.2,356,408.6,356.1,409,356.5L409,356.5z"/>
		<path id="path183" class="st9" d="M421.6,357.8c1.5-0.8,5.9,0,7.3-0.6c-1,1.1,3.1,1.2,6.6,0.3c-1.3,0.9-4.2,1-5.5,1.5
			c-1.2,0.5-1.9,0.1-2.9-0.3C426.2,358.3,423.7,357.5,421.6,357.8L421.6,357.8z"/>
		<path id="path185" class="st9" d="M435.5,357.5c-3.5,0.9-7.5,0.8-6.6-0.3c-1.3,0.6-5.8-0.2-7.3,0.6c1.6-1,2.8-0.2,3.9-2.1
			c0.7,0.1,2.4,0.2,3-0.5c1,0.2,2.8,0.7,3.3,1.2c0.5,0.5,1.3-0.1,0.7-0.9c1.6-0.6,0.6,0.7,4.3-0.2c0.8-0.2,2.6-0.5,3.3-0.6
			C438.8,355.6,437.3,356.7,435.5,357.5L435.5,357.5z"/>
	</g>
	<path id="path191" class="st10" d="M464.5,255.7c-0.2,59.9-9.7,124.3-87.7,155c-78.1-30.7-87.6-95.2-87.8-155H464.5z"/>
	<g id="g207" transform="translate(-8e-5,-2.56e-4)">
		<path id="path193" class="st7" d="M323.8,282.6c-1.3,1.7-2.7,3-4.5,4.3c-1.8,1.3-4.1,2.3-2.8,4.4c1.3,2.2,2.3,2.4,2.6,4.1
			c0.3,1.6,0.6,3,1.9,3.4c1.3,0.4,1.8,0.1,1.8,2.8c0,2.7,0,3.7,1.2,4.7c1.2,1,1,2,1.5,4.4c0.5,2.4,0.5,7.6,2,11.2
			c1.5,3.6,5,10.3,4.6,11.7c-0.4,1.4-0.9,2.4,0.6,4.1c1.5,1.7,2.6,4.1,2.7,5.5c0.1,1.4,0.4,1.9,1.9,1.4c1.5-0.5,2.3-1,2.8-1.7
			c0.5-0.6,1.5-0.5,2.9,0.3c1.4,0.8,3.6,1.5,4.9,0.8c1.3-0.8,1.9-1.9,3.1-1.9c1.8-1.3,2.4-3.9,2.8-4.7c0.4-0.8,0.1-0.8-0.6-1.5
			c-0.8-0.8-0.4-2-0.5-3.3c-0.1-1.3-0.6-3.2-2.2-6c-1.5-2.8-2.4-6.2-3.5-7.1c-1-0.9-1.5-3-1.7-4.1c-0.1-1-1.3-1.9-2-2.7
			c-0.8-0.8-1.5-1.9-2.4-6.3c-0.9-4.4-1.5-7.6-1.5-8.4s-0.1-0.9-0.9-1.1c-0.8-0.3-1.2-1.5-0.9-2.2c0.3-0.6-0.3-1.3-0.5-2
			c-0.3-0.8,0-2.2,0.5-2.9c0.5-0.8,0.4-2.9-0.1-4.7s-1-3.3-3.1-3.6c-2-0.3-2.4-0.8-3.2-2.4c-0.8-1.6-1.5-4.6-1.8-5.2
			c-0.3-0.6-0.6-0.8-2.2,0.5c-1.5,1.3-2,1.7-2,4.1c0,1.5,0.3,2,0.8,2.9c0.5,0.9,0.6,1.1,1,3.6c0.4,2.4,2.6,6.2-0.3,8.4
			c-2.8,2.2-2.4,2.7-2.3,4.2c0.1,1.5-0.8,2.5-1.3,0.4c-0.5-2.2,0-3.4,1.5-4.4c1.5-1,2.9-2.3,1.9-3.7c-1-1.4-1.4-4.7-1.5-6.2
			C324.9,282,324.7,281.5,323.8,282.6L323.8,282.6z"/>
		<g id="g205">
			<path id="path195" class="st8" d="M301,315c-0.1,1,0.2,2.2,0.2,3.1c0.1,1,0.4,3.2-0.4,4.9c-0.8,1.6-0.6,2.5,0,3
				c0,0,0.1,0.1,0.1,0.1c1.6-0.5,1.8-2.3,1.3-3.1c-0.4-0.9-0.3-2,0.2-2.9c0.5-0.9,0.5-1.4,0.1-2c-0.5-0.6-0.5-0.6,0.1-2.4
				C303.1,314,301.9,314,301,315L301,315z"/>
			<path id="path197" class="st8" d="M317.4,339.6c-0.3-1.1-1.3-5.5-1.4-8.4c-0.1-2.9-1.3-5.1-3.7-7.3c-1.9-1.7-2.3-4.5-2.4-6.6
				c-1.4-0.9-2-0.5-1.9,1.1c0.1,1.7,1.9,2.5,1.6,5c-0.3,2.5-0.3,1.8,1,3c1.2,1.2,1.7,2.3,1,2.9c-0.6,0.5-0.7,1.4,0.2,1.7
				c0.9,0.3,1,1.3,0.8,2.2c-0.1,0.9,0.7,1.1,1.2,1.7c0.5,0.6,0.6,2.2,0.1,3c-0.5,0.9-0.6,2.3,0.3,1.5c0.9-0.8,1.3-0.1,2,1.1
				c0.6,1,1.1,0.7,1.8,0.4C317.7,340.6,317.5,340.1,317.4,339.6z"/>
			<path id="path199" class="st8" d="M309.9,286.7c-0.9,0.1-1.6,0.9-1.1,3.8c0.3,1.8-1,1.4-1.5,0.5c-0.5-0.9-0.9-2.8-1.9-4.4
				c-1-1.6-0.5,1.1-0.6,2.7c-0.1,1.5,0.9,1.5,1.8,2.8c0.9,1.3,0.1,1.8-0.9,1.8s-0.5,2-0.3,3.4c0.3,1.4-0.3,1.7-1,0.5
				c-0.8-1.1-0.3-2.9-0.1-5.1c0.1-2.2,0.3-1.7-1.2-2.2c-1.4-0.5-1.2-0.8-0.6-2c0.5-1.3,1-1.9,0.4-2.5c-0.6-0.6-0.5-1,0.5-1.1
				c1-0.1,0.6-0.9,1.5-1.1c0.9-0.3,1.3,0.1,1.4-1.5c0.1-1.4,0.6-2.2,1.6-1.8C308.5,282.4,309.3,285.7,309.9,286.7L309.9,286.7z"/>
			<path id="path201" class="st8" d="M333.3,309.6c0.4-2.8,0.1-5.6,1.3-6.6c1.2-1,2.6-3,2.4,1.3c-0.1,4.3-0.3,4.1-1.1,5.1
				c-0.9,1-1.7,1.3-0.8,2.9c0.9,1.6,1,1.8,0.9,4.3c-0.1,2.5-0.1,3.6,0.9,4.8c1,1.3,1.3,1.4,1.5,2.8c0.3,1.4,1.1,3.3,2.3,4.3
				s2.4,3.9,2.6,6c0.1,2,1.9,2.5,3.6,3.9c1.7,1.4-0.4,2.4-1.7,1.8c-1.3-0.6-0.8,0-1.5,0.9c-0.8,0.9-1,1-1.7-0.5
				c-0.6-1.5-2.8-2.5-3.8-2.9c-1-0.4-1.9-2-2.8-3.7c-0.8-1.4-2.3-2.5-3.7-2.6c0.4,1.1,0.6,1.9,0.5,2.3c-0.4,1.4-0.9,2.4,0.6,4.1
				c1.5,1.7,2.6,4.1,2.7,5.5c0.1,1.4,0.4,1.9,1.9,1.4c1.5-0.5,2.3-1,2.8-1.7c0.5-0.6,1.5-0.5,2.9,0.3c1.4,0.8,3.6,1.5,4.9,0.8
				c1.3-0.8,1.9-1.9,3.1-1.9c1.8-1.3,2.4-3.9,2.8-4.7c0.4-0.8,0.1-0.8-0.6-1.5c-0.8-0.8-0.4-2-0.5-3.3c-0.1-1.3-0.6-3.2-2.2-6
				c-1.5-2.8-2.4-6.2-3.5-7.1c-1-0.9-1.5-3-1.7-4.1c-0.1-1-1.3-1.9-2-2.7c-0.8-0.8-1.5-1.9-2.4-6.3c-0.7-3.5-1.2-6.2-1.4-7.5
				c-0.9,1.5-1.5,1.8-1.9,0.8c-0.4-1.1-0.9-1.8-1.4-1c-0.5,0.8-0.6-0.6-0.6-1.3c0-0.6-0.1-0.8-0.8-0.8c-0.6,0-0.1-1-0.4-2.9
				c-0.3-1.9-0.6-2.2-0.9,0.1c-0.3,2.3-1.5,3.7-1,4.2c0.5,0.5,0.3,1.5-0.3,3c-0.5,1.5-0.3,2.4,0.1,3.4c0.4,1-0.3,2.9-0.5,4.6
				C331.6,310.7,332.9,312.3,333.3,309.6L333.3,309.6z"/>
			<path id="path203" class="st8" d="M322.8,301.7c0,2.7,0,3.7,1.2,4.7c1.2,1,1,2,1.5,4.4c0.5,2.4,0.5,7.6,2,11.2
				c0.5,1.1,1.1,2.4,1.7,3.8c0.8-0.7,1.6-1.8,1.8-2.4c0.4-0.9-0.8-2.7-1.7-4.2c-0.9-1.5,0.1-2,1-3.9c0.9-1.9-0.1-2-1.5-2.5
				c-1.4-0.5-1.4-1.8-2.2-3.8c-0.8-2-0.6-2.9-0.1-4.1c0.5-1.1,0.1-2-0.9-2.3c-1-0.3-0.8-1-0.4-2.3c0.4-1.3,0.6-1.5-0.9-1.1
				c-1.2,0.3-1.4,0.5-1.8,0.9C322.7,300.4,322.8,300.9,322.8,301.7L322.8,301.7z"/>
		</g>
	</g>
	<g id="g607" transform="matrix(1.3129567,0,0,1.3129567,-857.55727,-110.01291)">
		<g id="g221">
			<path id="path209" class="st11" d="M917.4,312.8l-2.3,25.6"/>
			<path id="path211" class="st11" d="M924.4,328.4c-1,4.3-2.2,9.2-3.5,13.4"/>
			<path id="path213" class="st11" d="M955,316.1c1.8,1.6,4.2,2,6.8,3.3"/>
			<path id="path215" class="st11" d="M966.7,327.4l-1.3,9.8"/>
			<path id="path217" class="st11" d="M965.4,327.9l-2.3,10.1"/>
			<path id="path219" class="st11" d="M922.9,328.7c-1.1,4.2-2.6,8-4,11.9"/>
		</g>
		<path id="path223" class="st12" d="M973.5,352.5c-0.1,0-0.1,0-0.2,0c-0.1,0-0.1,0-0.2,0c-0.1,0-0.1,0-0.2,0c-0.1,0-0.1,0-0.2,0
			c-0.1,0-0.1,0-0.2,0c-0.1,0-0.1,0-0.2,0.1c-0.1,0-0.1,0.1-0.1,0.1c0,0-0.1,0.1-0.1,0.1c0,0-0.1,0.1-0.1,0.1c0,0-0.1,0.1-0.1,0.1
			c0,0-0.1,0.1-0.1,0.1c0,0-0.1,0.1-0.1,0.1c0,0-0.1,0.1-0.1,0.1c0,0-0.1,0.1-0.1,0.1c0,0-0.1,0.1-0.1,0.1c0,0-0.1,0.1-0.1,0.1
			c-0.5,0.4-1.1,0.7-1.8,0.8c-0.5,0.1-1.6,0.2-2.1,0c-0.9,0-1.9-0.1-2.4-0.4c-0.6-0.3-1.5-0.1-2,0.2c-0.4,0.2-0.5,0.6-1,0.8
			c-0.3,0.4-1.5,0.3-2,0.2c-1.1,0.1-1.7-0.3-2.5-0.5c-0.5-0.4-1.3-0.6-1.9-0.1c-0.4,0.4-0.9,0.6-1.5,0.8c-1.1,0-2.2,0.1-3-0.3
			c-0.9-0.1-1.2-0.5-2-0.8c-0.9-0.2-1.3,0.3-1.9,0.5c-0.5,0.4-1.2,0.5-2.2,0.4c-0.9,0-2.1,0.1-2.7-0.3c-0.8-0.1-1.3-0.5-1.8-0.8
			c-0.6-0.4-1.6,0-2.1,0.3c-0.8,0.1-1.1,0.8-2.2,0.7c-0.9-0.1-1.4-0.5-2.2-0.7c-0.7-0.3-1.4-0.9-2.6-0.8c-0.4,0.5-1.1,0.7-1.9,0.7
			c-0.7,0-1.4,0-1.9-0.2c-1.4,0-2.1-1.5-3.1-2.3c-1.7-1.7-3.4-3.4-5.1-5.1c0.3-0.9,0.4-1.1-0.1-1.7c0.2-0.9-0.4-1-0.2-1.9
			c0.4-0.7-0.7-0.6-1-0.9c-0.6-0.1-0.9-0.6-1.5-0.8c-0.5-0.3-1-0.6-1.6-0.9c-0.5-0.2-1-0.5-1.5-0.8c-0.4-0.3-0.8-0.5-1.2-0.9
			c-0.5-0.2-0.9-0.5-1.2-0.8c-0.5-0.2-0.7-0.5-1.2-0.8c-0.3-0.3-0.9-0.6-1.3-0.9c-0.6-0.2-1.2-0.6-1.9-0.8c-0.5,0-0.6-1.1,0.3-1
			c0.6,0,1,0.4,1.5,0.7c0.7,0.3,1.5,0.6,2.3,0.8c0.5,0.3,1,0.5,1.6,0.7c0.5,0.4,1.2,0.5,1.8,0.9c0.6,0.3,1.3,0.6,1.6,0.9
			c0.5,0.2,0.8,0.6,1.3,0.8c0.2,0.2,0.6,0.3,0.9,0.6c0.5,0.2,1,0.4,1.4,0.7c0.5,0.3,0.8,0.4,1.1,0.7c0.4,0.1,3.3,1.6,3.1,1.4
			c2.8,0.5,4,0.7,6.8,1.1c6.7,0.1,13.4,0.2,20.2,0.3c2.4-1,4.9-2,7.3-3.1c0.7-1.2,1.5-2.3,2.2-3.5c3.6-0.7,7.2-1.3,10.8-2
			c-0.2-0.2,19-0.7,19.4,0.9c0.2,0.7,0.7,2,0.1,2.4c-0.4,0.2-18.1-2.3-18.4-0.7c-0.1,0.7,0,5,0.1,5.7c0.1,0.7,0.2,1.4,0.3,2.1
			c0.1,0.7,0.2,1.4,0.3,2.1c0.1,0.7,0.2,1.4,0.3,2.1C973.4,351.1,973.4,351.8,973.5,352.5L973.5,352.5L973.5,352.5L973.5,352.5
			L973.5,352.5z"/>
		<g id="g261">
			<path id="path225" class="st11" d="M918.7,325.3c-3.3,3.7-6.5,6.7-10,9.5"/>
			<path id="path227" class="st11" d="M936.7,310.2l10.5-9.1"/>
			<path id="path229" class="st11" d="M931.9,319.2c2.1,1.5,4.5,2.8,7.7,3.6"/>
			<path id="path231" class="st11" d="M930.5,305.4c1.3,2.1,2.8,4.1,7.4,5.3"/>
			<path id="path233" class="st11" d="M927.5,284.8c-1.4,1.9-3.7,3.6-6.7,5.1"/>
			<path id="path235" class="st11" d="M931.2,297.5c1.5,1.4,3.6,2.3,5.8,3.1"/>
			<path id="path237" class="st11" d="M931.2,329.2c1.1,5.2,2,9.3,3.2,13.7"/>
			<path id="path239" class="st11" d="M930.4,342.7c5.5-5.6,10.1-11.6,13.2-18.5"/>
			<path id="path241" class="st11" d="M954.7,303.9c1.7,1.9,3.6,3.2,6.4,4"/>
			<path id="path243" class="st11" d="M962.3,297.2c1.5,2.7,3.3,4.6,5,6.8"/>
			<path id="path245" class="st11" d="M946.1,288.9c-0.2,2.6-1.8,5.3-2.9,7.6"/>
			<path id="path247" class="st11" d="M949.9,290.2c-1.9,2.2-3.8,4.5-6.5,5.8"/>
			<path id="path249" class="st11" d="M950.3,280.8c-1.3,0.9-3.2,2-4.7,2.5"/>
			<path id="path251" class="st11" d="M970.2,300.9c-1.6,1.9-3.2,4.2-5.9,5.8"/>
			<path id="path253" class="st11" d="M970.5,316.8c-2.1,2-3.9,4.2-6.3,5.7"/>
			<path id="path255" class="st11" d="M982.4,328.1c-3.7,2.9-7.5,5.6-11.6,7.7"/>
			<path id="path257" class="st11" d="M972.8,336.2c3.5-2.2,6.5-5.1,9.6-8.1"/>
			<path id="path259" class="st11" d="M971.8,301.3c0.7,1.7,2.2,3.6,3.8,4.9"/>
		</g>
		<path id="path263" class="st13" d="M969.5,283.9l-0.3,52.3l3.8-0.2l-1.6-52.3L969.5,283.9z"/>
		<g id="g273">
			<path id="path265" class="st14" d="M972.1,351.4c0.9,0.5,1.4,1,2.2,1.8c1.7,1.5,2.8,1.5,5.2,0c0.9,0.1,1.8,0.6,2.7,0.4
				c0.9,0,1.7-0.1,2.5-0.3c1-0.2,1.2-1.5,1.5-2.3c0.5-1,1-1.9,1.6-2.8c0.9-0.6,1.8-1.2,2.4-2.1c0.7-0.8,0.6-1.9,0.4-2.9
				c-0.1-0.9-0.2-1.8-0.1-2.7c-0.2-1.2,0.8-2.1,0.7-3.3c-0.6-0.5-1.6-0.7-2.4-0.9c-1.4-0.3-2.8-0.5-4.2-0.6
				c-1.2-0.1-2.3-0.2-3.5-0.3c-1.1-0.1-2.3-0.2-3.4-0.2c-1.3,0-2.6-0.1-3.9,0.1c-0.9,0.2-2,0.1-2.8,0.5c-0.3,0.9-0.5,1.8-0.6,2.7
				c-0.1,0.8-0.2,1.6-0.2,2.4c0,1.5-0.2,3,0.3,4.4c0.3,1.2,0.4,2.3,0.6,3.5C971.3,349.8,971.4,350.7,972.1,351.4L972.1,351.4z"/>
			<g id="g271">
				<path id="path267" class="st11" d="M976.4,325.9l5.2,9.7"/>
				<path id="path269" class="st11" d="M989.4,336.1c-1.5-1.6-2.7-3.5-3.7-5.7"/>
			</g>
		</g>
		<g id="g287">
			<path id="path275" class="st15" d="M989,321l1.7,1.2l0.1,0C990.3,321.7,989.7,321.2,989,321C989,321,989,321,989,321L989,321z"/>
			<path id="path277" class="st15" d="M985.4,321.5c-0.1,0-0.2,0.1-0.2,0.1l-2.4,9.4L985.4,321.5z"/>
			<path id="path279" class="st15" d="M996.9,321.8c-0.6,0-1.2,0.3-1.7,0.6l1-0.4l1.3-0.2C997.3,321.8,997,321.8,996.9,321.8
				L996.9,321.8z"/>
			<path id="path281" class="st15" d="M985.7,330.4l-0.5,0.1c0.2,0,0.4,0,0.5,0c0.2,0.1,0.4,0.2,0.6,0.3L985.7,330.4z"/>
			<path id="path283" class="st15" d="M986.7,330.9c0.6,0.4,1.1,0.8,1.9,1L986.7,330.9z"/>
			<path id="path285" class="st15" d="M992.2,331.4L989,332C990.1,332.1,991.1,331.7,992.2,331.4z"/>
		</g>
		<path id="path289" class="st16" d="M985.6,320.9l-2.8,10l2.9-0.6l3,1.7l4.6-0.9l2.3,0.4c0.7-3.2,0.5-7,2.4-9.7l-1.9,0.3l-3,1.1
			l-2.4-0.9l-1.9-1.3L985.6,320.9z"/>
		<path id="path291" class="st17" d="M990,322.1c-0.5,0.9-0.9,1.9-1.1,3c0,0-1.3-0.5-2-0.6c-0.7-0.1-2.3,0-2.3,0l0,0.1l-0.7,2.4
			c0.1,0,1.8-0.2,2.6-0.1c0.6,0.1,1.7,0.6,1.7,0.6c-0.3,1.3-0.6,2.5-0.9,3.8l0.6,0.3l1.2,0.4l0,0l0.5-0.1c0.2-1.3,0.4-2.7,1-3.6
			c0,0,1.9,0.5,2.9,0.4c0.7-0.1,2.2-0.2,2.5-0.2c0.1-0.8,0.2-1.6,0.3-2.4c-0.4,0.1-1.9,0.5-2.8,0.4c-0.8-0.1-2.3-0.8-2.3-0.8
			c0.2-0.8,0.6-1.6,1-2.5L990,322.1z"/>
		<path id="path293" class="st11" d="M983.6,320.9c-1.2-3.3-2.7-8.8-3.4-13.1"/>
		<g id="g303">
			<path id="path295" class="st18" d="M984.7,321.7c0,0,3-0.7,4.3-0.4c1.3,0.3,2.1,1.8,3.5,2c1.5,0.2,2.9-1.2,4.4-1.3
				c0.7-0.1,2.2,0.3,2.2,0.3l-1,3.7l-0.8,3.1v2.8c0,0-2.6-0.6-3.9-0.5c-1.6,0.2-3,1.1-4.6,0.8c-1.2-0.2-1.8-1.2-3-1.5
				c-1-0.2-3.4,0.4-3.4,0.4L984.7,321.7z"/>
			<g id="g301">
				<path id="path297" class="st19" d="M985.2,321.6l-1.2,0.1l-3.8,13.5l1.8,0.1L985.2,321.6z"/>
				<path id="path299" class="st19" d="M984,321.6c-0.5-0.3-0.9-1.2-0.6-1.7c0.3-0.6,1.3-0.8,2-0.6c0.7,0.2,1.7,1,1.5,1.7
					C986.5,322,984.9,322.1,984,321.6z"/>
			</g>
		</g>
		<path id="path305" class="st15" d="M997.9,321.9c-1.8,2.7-1.7,6.3-2.4,9.4c0.9,0.1,1.6,0.3,1.6,0.3v-2.8l0.9-3.1l1-3.7
			C999.1,322.1,998.5,322,997.9,321.9z"/>
		<g id="g335">
			<path id="path307" class="st11" d="M976.2,311c1.9,1.3,3.8,4.7,6.5,7.4"/>
			<path id="path309" class="st11" d="M979.8,306.1c-1.4-3.7-2.5-9.7-2.7-14.2"/>
			<path id="path311" class="st11" d="M974.2,327.7l3,7.8"/>
			<path id="path313" class="st11" d="M977.2,288.3c-2.6-0.7-5-2.5-5.4-3.9"/>
			<path id="path315" class="st11" d="M960.4,290.9c1.7,0.1,7.5-4.2,8.4-6.5"/>
			<path id="path317" class="st11" d="M975.3,326.6l4.1,8.8"/>
			<path id="path319" class="st11" d="M974.9,329.6l3-1.1"/>
			<path id="path321" class="st11" d="M975.4,331.2l3.2-1.3"/>
			<path id="path323" class="st11" d="M976.7,334.5l3.5-1.5"/>
			<path id="path325" class="st11" d="M973.2,317.2l4.2,4.5"/>
			<path id="path327" class="st11" d="M964.3,328.1l-2.9,9.8"/>
			<path id="path329" class="st11" d="M963.5,330.3l2.9,0"/>
			<path id="path331" class="st11" d="M962.8,332.7l3.4,0.1"/>
			<path id="path333" class="st11" d="M962,335.2l3.7,0.7"/>
		</g>
		<g id="g369">
			<path id="path337" class="st20" d="M971.8,282.6c-0.7-0.2-2.5-0.3-3.2,0.3c-0.4,0.3-0.1,1.3,0.4,1.3c1,0,2.2,0.1,2.6-0.2
				C972,283.7,972.3,282.8,971.8,282.6L971.8,282.6z"/>
			<path id="path339" class="st21" d="M961.2,290.8c1.3,5.1,6.7,4.3,6.4-0.4"/>
			<path id="path341" class="st22" d="M966.2,290.5c1.6,5.9,8.7,4.9,8.4-0.5"/>
			<path id="path343" class="st23" d="M972.2,290.4c1.6,4.3,3.8,3.5,6.5-0.4"/>
			<path id="path345" class="st24" d="M980.2,288.4l-19.8,1.1l0,1.3l20-1L980.2,288.4z"/>
			<path id="path347" class="st25" d="M961.9,308.3c1.2,5.6,6.9,4.8,6.7-0.3"/>
			<path id="path349" class="st26" d="M967.1,308.1c1.6,6.5,8.9,5.5,8.7-0.4"/>
			<path id="path351" class="st27" d="M973.3,308.1c1.6,4.7,3.9,3.9,6.8-0.4"/>
			<path id="path353" class="st28" d="M981.8,306l-20.7,0.9l0,1.5l20.8-0.8L981.8,306z"/>
			<path id="path355" class="st29" d="M961.4,324.2c1.3,5.7,7.1,4.8,6.9-0.5"/>
			<path id="path357" class="st30" d="M966.7,323.9c1.4,8.6,9.3,5.5,8.9-0.5"/>
			<path id="path359" class="st31" d="M973.1,323.8c1.7,4.8,4.1,3.9,6.9-0.5"/>
			<path id="path361" class="st32" d="M981.7,321.5l-21.2,1.3l0.1,1.5l21.3-1.2L981.7,321.5z"/>
			<g id="g367">
				<path id="path363" class="st33" d="M974.6,298.6l-7.9,0.2l0,2l7.9,0L974.6,298.6z"/>
				<path id="path365" class="st33" d="M974.6,315.2l-7.9,0.2l0,2l7.9,0L974.6,315.2z"/>
			</g>
		</g>
		<g id="g389">
			<path id="path371" class="st11" d="M955,324.3l5.8,13.9"/>
			<path id="path373" class="st11" d="M925.7,328.7c-0.6,4.4-1.6,10-2.8,14.2"/>
			<path id="path375" class="st34" d="M990.7,337.2c-3.3-0.5-6.6-1.1-9.9-1.2c-2.6-0.1-5.3,0-7.9,0.3c-3.8,0.3-7.7,0.5-11.4,1.7
				c-0.5,0.2-1,0.3-1.4,0.7c-1,1-1.1,2.7-2,3.8c-0.8,1.1-4.1,3-5.2,3.8c-8.5,0.2-17.9,0.1-28.5-1.5l-1.5-1.7l-0.6-0.6l1.7,0.6
				l3.8,0.1l9.2-0.3c0,0,7.7,0,11.6-0.2c2.2-0.1,4.4-0.2,6.5-0.5c0.5-0.1,1,0,1.4-0.3c0.6-0.4,0.9-1.3,1.3-1.9
				c0.4-0.6,0.7-1.4,1.3-1.7c1.7-1.2,3.8-1.1,5.6-1.5c2.2-0.4,4.1-0.5,6.3-0.8c2.5-0.4,5.1-0.5,7.6-0.7c1.6-0.1,3.3-0.2,4.9-0.1
				c2.5,0.2,5.2,0,7.3,1.2c0.4,0.2,1.1,0.7,0.9,1C991.4,337.6,990.9,337.2,990.7,337.2L990.7,337.2z"/>
			<g id="g387">
				<path id="path377" class="st11" d="M952.1,280.8c1.3,1,3.6,1.8,5.8,2.1"/>
				<path id="path379" class="st11" d="M949.5,316.2c-2.7,1.9-5.5,3.2-8.4,4.1"/>
				<path id="path381" class="st11" d="M957,341.1l-4.6-12.1"/>
				<path id="path383" class="st11" d="M953.3,325l5.3,13.8"/>
				<path id="path385" class="st11" d="M952.6,328.6l3.5-1.2"/>
			</g>
		</g>
		<path id="path391" class="st35" d="M950.2,279l-1.1,64.3l3.8-0.2l-0.7-64.1L950.2,279z"/>
		<path id="path393" class="st11" d="M954.7,288.9c1.5,2.8,3.9,5.1,7.4,6.7"/>
		<g id="g411">
			<path id="path395" class="st25" d="M942.3,284.9c1.2,5.6,6.9,4.8,6.7-0.3"/>
			<path id="path397" class="st26" d="M947.5,284.8c1.6,6.5,8.9,5.5,8.7-0.4"/>
			<path id="path399" class="st27" d="M953.7,284.7c1.6,4.7,4.4,5.2,6.8-0.4"/>
			<path id="path401" class="st28" d="M962.1,282.6l-20.7,0.9l0,1.5l20.8-0.8L962.1,282.6z"/>
			<path id="path403" class="st25" d="M942.3,297.9c1.2,5.6,6.9,4.8,6.7-0.3"/>
			<path id="path405" class="st26" d="M947.5,297.7c1.6,6.5,8.9,5.5,8.7-0.4"/>
			<path id="path407" class="st27" d="M953.7,297.7c1.6,4.7,6.3,3.9,6.8-0.4"/>
			<path id="path409" class="st28" d="M962.1,295.6l-20.7,0.9l0,1.5l20.8-0.8L962.1,295.6z"/>
		</g>
		<path id="path413" class="st11" d="M948.4,305.1c-1.9,1.2-3.6,2.7-6,3.5"/>
		<g id="g423">
			<path id="path415" class="st25" d="M941.7,310.1c1.2,5.6,6.9,4.8,6.7-0.3"/>
			<path id="path417" class="st26" d="M946.9,309.9c1.6,6.5,8.9,5.5,8.7-0.4"/>
			<path id="path419" class="st27" d="M953.1,309.9c1.6,4.7,5.8,3.3,6.8-0.4"/>
			<path id="path421" class="st28" d="M961.5,307.8l-20.7,0.9l0,1.5l20.8-0.8L961.5,307.8z"/>
		</g>
		<g id="g431">
			<path id="path425" class="st11" d="M944.3,324.8c-0.5,6.4-3.1,12.1-4.8,18.1"/>
			<path id="path427" class="st11" d="M946.6,324.8c-0.6,6.2-2.5,12-4.1,17.8"/>
			<path id="path429" class="st11" d="M948.5,324.3c-0.7,6.9-1.6,12.6-3.1,18.3"/>
		</g>
		<g id="g447">
			<path id="path433" class="st25" d="M941.9,321.7c1.2,5.6,6.9,4.8,6.7-0.3"/>
			<path id="path435" class="st26" d="M947.1,321.5c1.6,6.5,8.9,5.5,8.7-0.4"/>
			<path id="path437" class="st27" d="M953.3,321.5c1.6,4.7,5.7,3.8,6.8-0.4"/>
			<path id="path439" class="st28" d="M961.7,319.4l-20.7,0.9l0,1.5l20.8-0.8L961.7,319.4z"/>
			<path id="path441" class="st36" d="M955.2,291.4l-7.4,0.2l0,2l7.5,0L955.2,291.4z"/>
			<path id="path443" class="st37" d="M954.9,303.9l-6.6,0.2l0,1.8l6.6,0L954.9,303.9z"/>
			<path id="path445" class="st38" d="M955.3,316.1l-7.2,0.2l0,2l7.2,0L955.3,316.1z"/>
		</g>
		<g id="g469">
			<path id="path449" class="st11" d="M944.1,327.1l3.9,0.8"/>
			<path id="path451" class="st11" d="M943.2,330.7l4.5,0.1"/>
			<path id="path453" class="st11" d="M942.5,333.3l4.6,1.3"/>
			<path id="path455" class="st11" d="M941.3,337.4l5.4-0.2"/>
			<path id="path457" class="st11" d="M940.3,340.7l5.7-0.2"/>
			<path id="path459" class="st11" d="M939,324.6c-0.6,6.5,3.6,12.7,5.7,18.1"/>
			<path id="path461" class="st11" d="M956.4,339.4l3.7-1.1"/>
			<path id="path463" class="st11" d="M955.5,337.4l4.1-1.7"/>
			<path id="path465" class="st11" d="M954.2,334.3l4.3-1.3"/>
			<path id="path467" class="st11" d="M953.3,331.4l4.2-1.1"/>
		</g>
		<path id="path471" d="M930.9,354.3c-0.5,0-0.9-0.2-1.4-0.2c-0.5-0.2-1-0.3-1.4-0.5c-0.4-0.2-0.9-0.5-1.3-0.8
			c-0.4-0.3-0.8-0.6-1.1-1c-0.5-0.4-0.9-0.8-1.3-1.3c-0.4-0.4-0.9-0.9-1.3-1.3c-0.4-0.4-0.9-0.8-1.2-1.3c-0.4-0.4-0.4-1-0.7-1.4
			c-0.5-0.1-1.3-0.2-1.3-0.9c-0.2-0.4-0.2-0.9-0.8-0.9c-0.2,0-0.3,0.3-0.1,0.1c-0.3-0.1-0.2,0.5-0.2,0.1c-0.2,0.2-0.3,0.8-0.3,0.7
			c-0.2,0.5-0.2,1,0.4,1c0.6,0.1,0.6,0.7,1.1,1c0.4,0.4,0.9,0.9,1.3,1.2c0.4,0.5,0.7,0.8,1,1.3c0.2,0.4,0.7,0.7,1,1
			c0.2,0.4,0.5,0.8,0.9,1.1c0.4,0.4,0.8,0.7,1.2,1c0.4,0.2,0.8,0.4,1.2,0.7c0.4,0.2,0.8,0.5,1.3,0.6c0.5,0.3,1.1,0.2,1.7,0.3
			c0.6,0,1.1,0,1.6-0.4C931.6,354.3,931.1,354.4,930.9,354.3L930.9,354.3z"/>
		<path id="path473" d="M961.1,339.6c-0.7,1.6-1.8,3.9-3.1,5.2c4.4,0.9,8-0.4,12-1.1c-0.4-1.7-0.4-3.6-0.3-5.5
			C966.5,338.6,964.2,339.3,961.1,339.6z"/>
		<path id="path475" class="st39" d="M961.4,340.1c-0.6,1.4-1,2.9-2.1,4.1c3.6,0.8,6.6-0.3,9.9-0.9c-0.6-1.3-0.4-2.8-0.2-4.2
			C966.4,339.4,964,339.8,961.4,340.1L961.4,340.1z"/>
		<path id="path477" d="M923.2,346.5l12.9,1c10.3,0.3,22.2-0.2,32.4-1.3c0.4,0,1.1-0.2,1.2,0.2c0.2,0.5-0.5,1.1-1,1.2
			c-11.7,1.5-23.6,0.9-35.4,0.9l-7-0.7L923.2,346.5z"/>
		<path id="path479" class="st11" d="M927.9,317.7c-3.3,2.5-6.6,5.1-10.3,6.6"/>
		<path id="path481" class="st11" d="M928.4,305.6c-3,2.2-6,4.9-9.3,6.2"/>
		<path id="path483" class="st40" d="M927.3,283.5l-0.1,60.1l3.3-0.2l-1.9-60.2L927.3,283.5z"/>
		<path id="path485" class="st11" d="M928.6,283.1c2.7,3,4.8,4.6,7.1,6.5"/>
		<path id="path487" class="st41" d="M929.4,281.4c-0.7-0.3-2.4-0.4-3.2,0.4c-0.4,0.4-0.1,2,0.4,2c1,0,2.2,0.1,2.5-0.3
			C929.6,283,929.9,281.6,929.4,281.4z"/>
		<path id="path489" class="st42" d="M927.6,351.3c0.1-0.5,0.5-0.7,0.9-0.7c0.5,0,1.2-0.1,1.5,0.1c0.4,0.1,0.6,0.3,1,0.5
			c0.2,0.3,0.6,0.5,0.9,0.6c1.1,0.4,0.5-0.8,1.1-0.9c0.5,0,1.1-0.2,1.5,0c0.4,0.1,0.6,0.4,0.8,0.6c0.2,0.2,0.5,0.4,0.6,0.6
			c0.1,0.3,1.2,0.9,1.3,0.1c0.2-0.5,0.1-1.4,1-1.3c0.9,0,1.6,0.2,2.4,0.3c0.4,0.2,0.8,0.2,1.2,0.6c0.3,0.2,0.3,0.6,0.6,0.5
			c0.8,0.6,0.7-0.5,0.9-0.9c0.2-0.3,0.8-0.2,1.1-0.5c0.5-0.2,1-0.3,1.8-0.3c0.3,0.2,0.8,0.4,1.2,0.6c0.3,0.2,0.6,0.6,0.7,0.9
			c0,0.4,0.4,0.7,0.7,0.4c0.2-0.5,0.5-0.4,0.9-0.7c0.4-0.1,0.6-0.3,0.8-0.5c0.2-0.1,0.4-0.5,0.6-0.7c0.4-0.3,1.1-0.2,1.7-0.3
			c0.6,0.2,1.2,0.2,1.5,0.5c0.2,0.2,0.4,0.5,0.7,0.6c0.2,0.4,0.6,0.1,0.9-0.1c0.2-0.2,0.6-0.4,1-0.5c0.3-0.3,0.7-0.5,1.2-0.5
			c0.7-0.1,1,0.3,1.5,0.3c0.5,0.2,1,0.2,1.4,0.5c0.4,0.2,0.8,0.4,1.2,0.1c0.5,0,0.1-0.9,0.3-1.1c0.5-0.4,1.8-0.4,2.5-0.1
			c0.6,0,1.2-0.1,1.6,0.1c0.4,0.1,0.4,0.4,0.6,0.8c0.2,0.3,1.2,0.3,1.5,0.1c0.3,0-0.1-0.5-0.2-0.6c-0.2-0.1-0.4-0.5-0.5-0.7
			c0.5-0.2,0.7,0.2,1.2,0.3c0.2,0.2,0.6,0.3,0.8,0.5c0.4,0.1,0.7,0.3,1.4,0.3c0.6,0.2,0.3,1-0.3,0.8c-0.5,0.2-1.2,0-1.8,0.1
			c-0.9-0.1-1.8-0.1-2.8-0.1c-0.5,0.2-1.2,0.1-1.8,0.3c-0.6,0-1,0.1-1.6,0.1c-0.6,0.1-1.3,0.1-1.9,0.1c-0.6,0.1-1.1,0.1-1.7,0.2
			c-0.5,0-1,0.1-1.6,0.1c-0.8,0.1-1.8,0-2.7,0.1c-0.6,0.1-1,0.1-1.6,0.1c-0.6,0-1.1,0.1-1.7,0.1c-0.6,0-1.1,0.1-1.7,0.1
			c-1,0.1-2,0-3,0.1c-0.5-0.1-1.1-0.1-1.6-0.1c-0.5,0-0.9-0.1-1.5-0.1c-0.4-0.1-1.1,0-1.6-0.1c-0.8,0-1.4-0.1-2.3-0.1h-4.4
			c-0.4-0.2-1,0-1.5-0.1c-0.8,0-1.8,0-2.5,0c-0.7-0.1-1.4,0-1.9-0.3C928.6,352.3,927.5,352,927.6,351.3L927.6,351.3z"/>
		<g id="g499">
			<path id="path491" class="st43" d="M920.3,290.8c1.1,3.9,6,3.3,5.9-0.2"/>
			<path id="path493" class="st44" d="M924.8,290.7c1.4,4.5,7.8,3.8,7.6-0.2"/>
			<path id="path495" class="st45" d="M930.3,290.7c1.4,3.3,3.9,3.6,5.9-0.3"/>
			<path id="path497" class="st46" d="M937.6,289.3l-18.1,0.6l0,1l18.2-0.5L937.6,289.3z"/>
		</g>
		<path id="path501" class="st11" d="M925.2,298c-1.6,1.4-4.6,3.2-5.9,3"/>
		<path id="path503" class="st11" d="M922,293c-3.9,14.9-9,30.6-13.8,43.2"/>
		<g id="g523">
			<path id="path505" class="st41" d="M920.1,302.1c1.1,4.2,6.2,3.6,6-0.2"/>
			<path id="path507" class="st47" d="M924.4,302c1.4,5.6,8,4.8,7.8-0.3"/>
			<path id="path509" class="st48" d="M930.3,301.9c1.6,3.5,4.4,3.8,6.7-0.3"/>
			<path id="path511" class="st49" d="M937.9,300l-18.5,0.8l0,1.4l18.7-0.7L937.9,300z"/>
			<path id="path513" class="st50" d="M919.1,312.8c1.2,5.1,6.7,4.4,6.5-0.3"/>
			<path id="path515" class="st51" d="M924.2,312.7c1.6,7.6,9.3,6.4,9.1-0.4"/>
			<path id="path517" class="st52" d="M930.2,312.6c1.5,4.3,4.3,4.7,6.6-0.3"/>
			<path id="path519" class="st53" d="M938.4,310.7l-21.1,0.8l0,1.3l21.3-0.7L938.4,310.7z"/>
			<path id="path521" class="st54" d="M918.7,325.3c1.3,5.6,7.2,4.7,7.1-0.3"/>
		</g>
		<path id="path525" class="st11" d="M934.4,328.2c1.2,5.3,2.8,10.1,4.3,14.6"/>
		<path id="path527" class="st11" d="M932.8,328c0.7,5.1,2.1,10,3.5,14.7"/>
		<g id="g541">
			<path id="path529" class="st55" d="M924.2,325.1c1.5,7.4,9.2,6.7,9.2-0.4"/>
			<path id="path531" class="st56" d="M930.8,325.1c1.7,4.7,4.7,5.1,7.1-0.4"/>
			<path id="path533" class="st57" d="M939.6,322.8l-23.5,1l0,1.6l23.7-0.8L939.6,322.8z"/>
			<path id="path535" class="st58" d="M931.9,296.3l-6.8,0.2l0,1.5l6.8,0L931.9,296.3z"/>
			<path id="path537" class="st58" d="M931.9,307.3l-6.8,0.2l0,1.5l6.8,0L931.9,307.3z"/>
			<path id="path539" class="st59" d="M932.4,319.2l-7.2,0.2l0,1.5l7.2,0L932.4,319.2z"/>
		</g>
		<g id="g571">
			<g id="g559">
				<path id="path543" class="st11" d="M935,329.7l-3.9,0.8"/>
				<path id="path545" class="st11" d="M935.6,332.7l-3.9,0.8"/>
				<path id="path547" class="st11" d="M936.5,335.8l-3.9-0.2"/>
				<path id="path549" class="st11" d="M937.7,338.9l-4,0.6"/>
				<path id="path551" class="st11" d="M919.6,338.3l4.1,0.8"/>
				<path id="path553" class="st11" d="M920.7,335l3.6,0.8"/>
				<path id="path555" class="st11" d="M921.7,332.4l3.4,0.9"/>
				<path id="path557" class="st11" d="M922.3,330.1l3,0.6"/>
			</g>
			<g id="g569">
				<path id="path561" class="st60" d="M970.5,343.6c6.7-0.3,14.8-1.1,20.2,1"/>
				<path id="path563" class="st60" d="M970.9,345.9c6.2-0.9,13.5-1.4,18.8,0.6"/>
				<path id="path565" class="st60" d="M971.6,350.4c4.5-1,10.5-1.2,14.7-0.2"/>
				<path id="path567" class="st60" d="M972.1,351.4c4.5,1,9.8,1.2,14,0.2"/>
			</g>
		</g>
		<path id="path573" d="M906.4,335.7l14.6,8.8l0.3-0.4l-4.6-3.2C913.4,338.9,910.1,336.9,906.4,335.7z"/>
		<g id="g605">
			<g id="g601">
				<path id="path575" class="st11" d="M976.4,342.9l-0.1-4.9"/>
				<path id="path577" class="st11" d="M977.9,338.1l0,5"/>
				<path id="path579" class="st11" d="M980.6,343.1v-5.2"/>
				<path id="path581" class="st11" d="M983.6,338.4l0,5"/>
				<path id="path583" class="st11" d="M985.5,338.3l0.1,5.1"/>
				<path id="path585" class="st11" d="M987.8,338.9v4.7"/>
				<path id="path587" class="st11" d="M989.1,338.8l-0.1,5.3"/>
				<path id="path589" class="st11" d="M977,345l-0.1,4.6"/>
				<path id="path591" class="st11" d="M975.5,345.3v4.3"/>
				<path id="path593" class="st11" d="M979.5,345.1l-0.2,4.3"/>
				<path id="path595" class="st11" d="M980.9,345.1l-0.1,4.3"/>
				<path id="path597" class="st11" d="M983.2,345l-0.3,4.2"/>
				<path id="path599" class="st11" d="M985.3,345.6l-0.8,3.9"/>
			</g>
			<path id="path603" class="st60" d="M970.6,338.4c6.7-0.8,13.3,0.2,20,0.8"/>
		</g>
	</g>
	<path id="path609" class="st10" d="M464.5,255.7c0.1-22.5-1.2-44.4-0.6-63.6c-29.2-13-67.6-15.6-87.1-15.6
		c-19.6,0-58,2.7-87.1,15.6c0.6,19.2-0.7,41.1-0.6,63.6H464.5z"/>
	<g id="g1387" transform="matrix(0.48583726,0,0,0.48583726,180.7078,93.349805)">
		<path id="path1116" class="st61" d="M392.7,258.8c0,0,6.5,9.6,8.2,14.8c0.9,2.5,1.2,5.3,1,8c-0.3,4.9-2.2,9.6-3.7,14.2
			c-1.1,3.2-3.4,5.7-2.1,8.8c0.6,1.5,1.2,2.9,2.8,2.7c1-0.2,1.5-1.4,2.2-2c0.6-0.4,1.1-1,1.7-1.2c0.9-0.4,2.3,0.2,3-0.5
			c0.6-0.6,1-1.8,0.5-2.5c-0.5-0.6-1.5,0-2.2,0c-1.1,0-2.3,0.8-3.2,0.2c-1-0.5-1.5-3-1.5-3s1.9-5.3,3-8c0.9-2.2,2.3-4.2,2.7-6.5
			c0.1-0.7-0.1-1.5,0-2.2c0.1-1.2-0.3-2.6,0.5-3.5c0.5-0.6,2,0.2,2.2-0.5c1.1-2.7-3.9-4.5-5-7.2c-0.4-1-0.1-2.2-0.5-3.2
			c-0.8-2.3-3.5-6.2-3.5-6.2L392.7,258.8z"/>
		<path id="path1140" class="st62" d="M412.9,266.3c0,0,5.8,7.2,6.4,11.5c0.1,1-0.6,1.9-0.7,2.8c0,1.5,0.9,3,0.8,4.5
			c-0.2,4.9-2.8,9.4-4,14.2c-1,4-2.7,12.2-2.7,12.2l3.7-0.3l0.7-6.2c0,0,1.9-7,2.8-10.5c0.6-2.4,1-5,1.8-7.4
			c0.6-1.6,1.8-2.9,2.2-4.5c0.5-2.1,1.1-4.6,0.2-6.5c-0.3-0.7-1.3-0.8-1.8-1.3c-1.3-1.3-2.2-2.9-3-4.5c-0.8-1.6-1.8-5.2-1.8-5.2
			C416.7,265.4,412.9,266.3,412.9,266.3L412.9,266.3z"/>
		<path id="path1344" class="st16" d="M385.7,253.2l4.1,3.3l7.1,4.3l3.3,0.2l3.7,1.3l4.6-0.1l3.4,3.5l1,0.6l3.8-0.5l1.4-1.6
			l7.2-11.1l-1.7-18.2l-34.5,2.2L385.7,253.2z"/>
		<path id="path1171" class="st16" d="M423,222.5c4.7,3.8,9.2,7.8,12.9,12.6c2.8,3.3,4.5,7.9,8.7,9.9c5.8,6.2,30.7,13.4,30.8,15.3
			c-5.7-2.3-8.2,5.5-13.8,4.2c-5.2,1.5-9.4-1.9-13.9-3.8c-6.7-0.2-13.7,0.1-19.7,3.5c-3.3,1.8-7.2-1-9.7-0.1l-0.3,0.6l-0.4,0.3
			 M385.7,253.2c-4-2-6.9-5.7-10.6-7.9c-2.9-4-6.5-8.1-6.4-13.4c-0.5-5.5-1.9-13.1,0.7-18.3c-1.9-4.1-4.5-5.2-6.6-9.2
			c-1.5-5.6-7.2-8.8-3.8-13c3.8-3.4,6.4-7.3,11.3-9.1c4-0.9,8.1-0.5,12,0.8c5,0.6,7.8,4.9,10.4,8.6c3.2,5,5.3,10.6,6.2,16.5
			c2.3,4.8,8.5,5.8,13,7.9c3.9,1.8,7.8,3.4,11,6.4"/>
		<path id="path1332" d="M450.3,254.8c-2-0.3-6.6,1.7-5.4-1.2c-4.8-0.3-9.9,0.7-14.5-0.9c-4.8-2.4-10-3.8-15.1-5.2
			c-5-0.3-10.9,0.9-14.8-3.2c-4-2.3-9.8-0.7-13.5-4c-3.7-3.2-5.9-7.5-5.8-12.4c-0.7-4.8-2.5-11.2,2.8-14c3.5-1.1,6.8-0.2,8.9-3.7
			c4.4-0.7,8.5,0.9,12.4,3.1c4.5,2.2,9.5,3.6,13.8,6.1c4.2,2.8,7.7,6.4,11.7,9.5c3.1,3.5,6.7,6.8,8.7,11.1c2.4,4.7,7.3,7.1,11.4,9.8
			c2.5,0.6,8.5,3.4,2.8,4.2C452.5,254.1,451.4,254.6,450.3,254.8z"/>
		<path id="path1327" class="st63" d="M401.3,239.1c-2.4-0.3-4.9-0.8-6.9-2.3c-1.6-0.9-5.5-3.2-3-5c2.1-0.3,4.5,0.8,6.4-0.7
			c2.8-0.6,5.8-0.6,8.5-2c2.4-1.3,5.3-0.4,7.9-1.3c1.9-1,1.6-4.8,4.5-4.2c2.7-0.7,1.9,4.4-0.5,2.8c-1.5,2.1,2.6,2.8,3.7,4
			c2.2,2.5-2.6,3.1-3.1,4.9c-3,0.9-5.3-2.9-8.3-1.9c-0.6,1,0.1,3.1-2.1,2.6c-2.5-1.6-4.8,0.2-7.3,0.5
			C401.8,237.1,400.2,239.1,401.3,239.1L401.3,239.1z"/>
		<path id="path1258" class="st63" d="M454.2,257.4c-1.4-0.8-3.3-0.1-4.9,0c-1.1,0-2.1,0.1-3.1-0.4c-1.6,0-4.6-1.7-5,0.5
			c0.1,1,2.7,1.4,0.5,1.7c-2.2,0.3-4.1-0.7-6.1-1.4c-0.8-0.8-2.5-1.7-2.1,0.1c0.7,1.6-1,2.3-2.4,2.3c-1.9-0.1-4.1-0.7-5.5-2.1
			c-1,1.3,1.4,3,2.9,3.1c1.4,1.2-2.2,0.7-3,0.6c-1.2-0.2-2.6-0.4-3.7,0.4c-1.7,0.4-1.7,2,0.2,1.9c1.9,0.6,4,1.2,5.9,0.2
			c2-1.2,4.2-2,6.6-2.4c1.8-0.4,3.7-0.7,5.5-0.8c2.5-0.3,4.9-0.2,7.4-0.2c1.9,1,3.8,0.1,5.6-0.8c1.1-0.3,4.3-1.5,1.9-2.5
			C454.7,257.6,454.5,257.1,454.2,257.4L454.2,257.4z"/>
		<path id="path1255" d="M447.6,260.8c1,0,1.9,0,2.8-0.5c0.9-0.5,2-0.7,2.9-1c1.3,0,1.9-1.7,0.5-2.1c-0.7-0.5-1.5-0.8-2.3-1.1
			c-0.8-0.7-1.9-0.9-2.6-1.5c0.6-0.7,1.1-1.5,1.6-2.2c0.9-0.4,2-0.2,2.9-0.5c0.7-0.2,1.5-0.1,2.2-0.1c1,0.5,2.1,0.8,3,1.4
			c1,0.5,2,1,3.1,1.4c0.9,0.3,1.8,0.6,2.6,1c1,0.5,2.1,0.7,3.2,1c1,0.2,1.5,1.4,2.7,1.2c1.2,0.2,2.3,0.5,3.2,1.3
			c0.7,0.3,1.9,0.9,1.9,1.5c-1,0.1-1.8-0.8-2.9-0.6c-0.8,0.2-1.3,1-2.3,0.8c-0.4,1.2-2,1-2.7,2c-1,0.8-2.1,1.5-3.3,2
			c-0.9,0.4-2,0.3-2.9-0.1c-1.1-0.3-2.2,0-3.3-0.2c-1.2,0.3-2.3,0.1-3.4-0.3c-1-0.3-1.7-1-2.6-1.5c-1-0.4-2.8-0.9-3.8-1.3
			c-0.5-0.3-0.5-0.4-1-0.5L447.6,260.8z"/>
		<path id="path1245" d="M373.3,181.7c-1,0-2,0-3,0.4c-1.7,0.4-3.2,1.4-4.3,2.7c-1.4,1.6-3,3.1-4.8,4.3c-0.9,0.6-1.6,1.4-2.1,2.3
			c1,0.7,2.6,0.9,3.3-0.4c1.1-1.4,2.5-2.5,4.2-3.1c1.4-0.3,2.9,0.3,4.4,0.4c1.2,0.6,2.3,1.1,3.7,1.3c0.7,0.3,1.9,0.4,2.8,0.6
			c1.3,0.5,2.7,0.7,4.1,1.1c1.6,0.3,3.2,0.2,4.7,0c0.4,0,0.7-0.1,1.1-0.1c-0.2,0.5-0.4,1-0.4,1.2c0,1,0.4,1.8,0.9,2.6
			c0.5,0.8,1,1.6,1.5,2.5c0.4,0.9,0.9,1.9,1.2,2.8c0.5,0.7,0.7,1.5,1.1,2.3c0.2,0.9,0.6,1.8,1.2,2.4c0.6,0.8,1.4,1.6,2,2.5
			c0.5,0.8,0.9,1.6,1.3,2.4c0.7,0.6,1.4,1.4,2.4,1.3c1,0.1,1.9-0.3,2.9-0.4c-0.1,0-0.2-0.1-0.3-0.1c-0.9-0.5-1.3-1.4-1.8-2.2
			c-0.2-0.9-0.3-1.9-0.5-2.8c-0.1-0.9-0.4-1.8-0.7-2.7c-0.2-0.8-0.6-1.5-0.8-2.3c-0.4-0.8-0.7-1.6-1-2.4c-0.3-0.9-0.6-1.8-1.1-2.5
			c-0.5-0.8-0.8-1.7-1.3-2.5c-0.5-0.7-0.9-1.7-1.4-2.4c-0.3-0.4-0.7-0.7-1.1-0.8c0.2-0.4,0-1-0.5-1.5c-0.7-0.8-1.6-1.5-2.1-2.6
			c-1.1-1.3-2.8-1.8-4.4-2.5c-1.8-0.8-3.6-1.2-5.5-1.5c-1.5-0.4-3-0.6-4.5-0.5C374,181.7,373.7,181.7,373.3,181.7z"/>
		<path id="path1239" class="st63" d="M390.8,206.3c-0.1-1.3-1.9-0.8-2.4-0.1c-0.9,0.9-1.4,2.1-2.5,2.8c-1.6,1.2-3.7,1.3-5.3,2.5
			c-0.9,0.9-1.6,2.1-2.8,2.7c-1.3,0.7-2.6,1.4-3.3,2.8c-0.3,1-0.9,2.3,0.1,3.1c1.3,0.5,0.1,1.7,0.1,2.5c0.6,0.9,2.1,1.3,3,0.6
			c1.2-0.7,2.6-1.4,3.4-2.7c1.2-1.4,2.5-2.8,4.2-3.6c1.1-0.3,2-1,2.7-1.8c0.8-0.7,0.1-1.9,1.3-2.2c1.1-0.4,1.7-1.5,2.4-2.3
			c0.7-1-0.5-2-0.4-3C391.3,207.1,391.2,206.6,390.8,206.3L390.8,206.3z"/>
		<path id="path1157" class="st62" d="M409.9,312.6c-2.2,0-4.5,0-6.7,0c-1.1-0.4-1.9-2.3-3.3-1.6c-1.2,0.5-2.5,1.1-3.6,1.7
			c-1.1,0.6-2.1,1.4-2.8,2.5c-0.1,0.7-2.2,1.5-0.5,1.5c1.5,0.1,2.5-1.4,3.9-1.6c1.2-0.5,2.4-0.2,3.6-0.3c1,0.2,2.1,0.2,3.2,0.2
			c1.2-0.1,2.3,0.1,3.5,0.1c1.7,0.2-0.6,1.2-1.2,1.4c-1.3,0.6-2.8,0.8-4.2,1.1c-1.4,0-2.8,0-4.1,0.6c-1.3,0.6-2.6,1.2-3.8,2.1
			c-0.7,0.4-2.3,1.2-0.7,1.3c1.2,0.1,2.4-0.2,3.6-0.5c2-0.8,4.1-1.3,6.2-1.6c1.4-0.3,2.7-0.9,4.1-1.2c0.9,0,3.1-0.4,2.4,1.1
			c-0.9,1.1-2.1,1.8-3.4,2.3c-1,0.6-2,1.6-3.3,1.5c-1-0.3-3.1,0.4-1.6,1.4c0.8,1.4,2.4,0.4,3.4-0.1c1.2-0.6,2.3-1,3.5-1.5
			c1.4-0.5,2.8-1,4.1-1.6c1.1-0.7,2.5-0.9,3.5-1.7c1.2-0.7,2.6-1.3,3.2-2.6c0.4-1.1,1.2-1.8,2.3-2.2c1.2-0.3,2.5-0.1,3.8-0.4
			c1.4,0,1-2.5-0.3-2.6c-1.1-0.7-2.1-1.6-3.2-2.2c-1.4-0.5-2.8-0.8-4.3-0.7c-1.2,0.1-2.2,0.9-2.8,1.9c-0.8,0.9-0.9,2.5-2.4,2.1
			C411.2,313.1,410.5,312.8,409.9,312.6L409.9,312.6z"/>
		<path id="path1136" class="st62" d="M377.1,320.9c0,0,1.3-4.7,2.9-6.3c3.4-3.3,13-5.7,13-5.7c-4.1,1.6-9,0.4-13,1.5
			c-3.3,1-9,5.3-9,5.3s2.1-4.5,3.7-6.3c4.8-5.2,12.4-5.8,18.1-4.9l6.5,0.9c0,0,1.1,0.7,0.6,1.7c-1,2.1-4.1,3.2-6.2,4.2
			C387.9,314.2,380.7,316.5,377.1,320.9z"/>
		<path id="path1134" class="st61" d="M396.8,304.4c-5.2,3.5-17.3,9.9-16.8,10.2c0,0,10.3-2.4,15-4.6c1.6-0.8,3.9-1.4,4.5-3.1
			c0.3-0.9-0.1-2.1-0.9-2.6C398.1,304,397.3,304.1,396.8,304.4z"/>
		<path id="path1138" class="st63" d="M421.8,277c-1.3-0.1-1.5,2.2-1.5,3.5c0,0.9,0,2.4,0.8,2.5c1.1,0.1,1.4-1.9,1.5-3
			C422.7,279,422.8,277.1,421.8,277L421.8,277z"/>
		<path id="path1142" class="st61" d="M416.4,311.3c0-1-1.3-0.5-1.8-0.3c-1.3,0.3-2.4,1-3.5,1.6c-0.9,0.6-1.8,1-2.7,1.5
			c-1.8,0.8-3.3,2-5.1,2.8c-0.7,0.4-1.5,0.7-2.3,0.9c-0.7,0.1-0.4,0.5,0.1,0.5c1.2,0.3,2.5,0.1,3.6-0.3c1.3-0.4,2.8-0.7,4-1.3
			c0.7-0.6,2.1-0.8,2.8-1.3c0.6-0.4,2.3-0.7,3-1c1.2-0.6,0.7-1.4,2-1.4c0.8,0,0.9-1.2,0.1-1.4C416.6,311.6,416.5,311.5,416.4,311.3
			L416.4,311.3z"/>
		<path id="path1149" class="st61" d="M404.6,322.3c0.9-0.3,1.9-0.2,2.8-0.5c1.1-0.3,2.2-0.7,3.3-1c0.5-0.3,1-0.5,1.6-0.8
			c0.9-0.7,1.6-1.6,2.2-2.6c0.4-0.8,0.8-1.6,1.2-2.4c0.2-0.6-0.6-0.9-1-0.5c-0.6,0.4-1.1,0.9-1.8,1.3c-0.6,0.5-1.3,0.9-1.9,1.4
			c-0.7,0.8-1,1.8-1.8,2.6c-0.4,0.4-0.8,0.6-1.2,0.8c-1,0.5-2,0.8-3,1.3C404.9,322.1,404.7,322.2,404.6,322.3L404.6,322.3z"/>
		<path id="path1163" class="st64" d="M417.2,254.2c0.4,0.6,0.6,1.3,0.6,2c0.1,0.9,0.3,1.7,0.4,2.6c-0.1,0.9-1,1.4-1.1,2.3
			c-0.1,0.6,0,1.2-0.1,1.8c-0.2,1,0.1,2-0.3,2.9c-0.5,0.9-1.8,0.2-2.6,0.4c-0.8,0.2-1.7,0.2-2.2-0.6c-0.7-0.7-1.3-1.5-2-2.1
			c-0.9-0.9-1.8-1.8-2.4-2.9c-0.5-0.8-1-1.6-1.5-2.3c-0.2-0.3-0.4-0.7-0.5-1"/>
		<path id="path1165" class="st64" d="M408.6,262.2c-0.8,0-1.5,0.2-2.3,0.1c-0.8,0-1.5,0-2.3,0c-0.6-0.2-1.7-0.2-2.2-0.6
			c-0.6-0.1-0.9-0.5-1.5-0.7c-0.4-0.3-0.8,0-1.3-0.1c-0.3-0.6-1.1-1.4-1.5-1.9c-0.4-0.2-0.9-0.4-1.3-0.9c-0.5-0.1-0.8-0.9-1-1.1
			c-0.4-0.4-0.5-1-0.8-1.4c-0.3-0.5-0.4-0.9-0.8-1.4c-0.1-0.1,0-0.2,0-0.4"/>
		<path id="path1167" class="st64" d="M398.9,260.9c-0.2,1.1-1.4,0-2-0.1c-0.5-0.2-0.9-0.5-1.4-0.7c-0.4-0.3-0.9-0.5-1.3-0.7
			c-0.5-0.3-1.1-0.5-1.5-0.9c-0.7-0.2-1.2-0.8-1.8-1c-0.6-0.6-1.3-1-1.9-1.4c-0.7-0.5-1.5-1-2.1-1.7c-0.6-0.5-1.1-1.1-1.2-1.9
			c-0.1-0.8-0.3-1.5-0.6-2.1c0.1-0.4-0.2-0.6-0.2-0.9"/>
		<path id="path1187" class="st6" d="M450.3,261.5c0.7,0,1.4,0,2.1-0.2c0.7,0,1.4-0.3,2.1-0.5c0.7-0.3,1.3-1,2.2-1
			c0.8,0,1.6,0.2,2.3-0.2c0.4-0.6,1-0.8,1.8-0.7c0.7-0.1,1.4,0.1,2.1,0.3c0.6,0.2,1.3,0.4,2,0.6c0.6,0.3,1.2,0.7,1.9,0.9
			c0.6,0.3-0.5,0.8-0.7,1.1c-0.6,0.3-1.4,0-2,0.5c-0.6,0.3-1.1,0.7-1.4,1.4c-0.3,0.7-1.2,0.5-1.9,0.7c-0.6,0.1-1.3,0-1.9,0.1
			c-0.5,0-1.1,0.2-1.6-0.1c-0.7-0.2-1.4-0.4-2.1-0.4c-0.5-0.4-1-1-1.7-1c-1-0.2-1.8-0.9-2.7-1.2
			C450.5,261.9,450.4,261.8,450.3,261.5L450.3,261.5z"/>
		<path id="path1181" class="st65" d="M363.4,199.3c-1.6-0.3-3.2,0.4-4.8,0.4c-1.5,0.3-3,0.1-4.5,0.2c-1.6-0.3-3.3-0.1-4.9,0.1
			c-2.4,0.4-4.6,1.3-7,1.7c-3.2,0.2-6.5,0-9.8,0.1c-2.3,0.2,0.2-2.8,1.5-2.6c3-0.8,5.9-1.9,8.9-2.2c2.3-0.3,4.5-1,6.8-1.4
			c1.8-0.5,3.7-0.9,5.5-1.5c1.9-0.3,3.8-0.7,5.7-0.4c2-0.5,4-1,5.9-1.8c1.7-0.9,3.8-0.3,5.4-1.3c1-1.5,2.9-1.5,4.6-1.3
			c1.7,0.3,3.6,1,4.7,2.5c1.3,1.8-2.6,1.6-1.5,3.5c-0.7,0.7-2,0.9-3.1,0.8c-0.9-0.1-1.9,0.2-2.7-0.3c-1.5-0.5-2.6-1.7-4-2.4
			c-1.4-0.2-1.5,2.4-3.2,2.1c-2.2,0.9-4.7,0.6-7,0.7c1.5,0.5,3.1,1.1,4.3,2.1C364.8,198.9,363.9,199.2,363.4,199.3L363.4,199.3z"/>
		<path id="path1185" class="st16" d="M372.8,192.8l1.5-0.7l0.8-1.3c0,0,1.3,1.9,0.7,2.6C375.1,194.1,372.8,192.8,372.8,192.8
			L372.8,192.8z"/>
		<path id="path1191" class="st16" d="M376.8,189.2c0.3-0.2-1.2-1.2-0.1-1.4c1.2-1.4,3.1-0.3,4.5,0.2c2.7,0.9,5.6,1.9,7.4,4.2
			c2.6,3,3.2,7.1,5.2,10.4c0.9,1.6,1.4,3.3,2,5c0.4,1.4,2.5,2.8,1.4,4.2c-1.3,0.8-2.6-0.3-3.8-0.6c-1.6-0.2-0.8,1.7,0.2,1.9
			c1.2,0.5,1.5,2.3-0.1,2.2c-1.6-0.2-3.2-0.3-4.7-0.6c-1.2-0.7,0.3-1.9,1-2.4c0.9-0.6,2.1-1.3,2-2.6c0-2.3-1.6-4.2-1.9-6.4
			c-0.4-1.7-0.8-3.3-1.6-4.9c-0.7-3.6-3.9-6-7.2-7.1c-1.4-0.7-2.9-1.3-4.3-2.1C376.8,189.4,376.8,189.3,376.8,189.2L376.8,189.2z"/>
		<path id="path1193" class="st6" d="M388.6,191c0.5,0.3,0.9,0.5,1.4,0.8c0.4,0.4,1.3,1.7,1.5,2.2c0.2,0.4,0.3,0.8,0.4,1.2
			c0.1,0.5,0.5,0.9,0.8,1.3c0.3,0.6,0.5,1.2,0.7,1.9c0.3,0.5,0.6,1,0.7,1.5c0.1,0.5,0.3,1,0.4,1.4c0.3,0.4,0.4,1.1-0.3,1.2
			c-0.4-0.1-0.9-0.3-1.2-0.7c-0.5-0.5-0.8-1.1-1.2-1.7c-0.2-0.4-0.4-0.9-0.5-1.3c-0.3-0.5-0.3-1-0.5-1.6c-0.2-0.5-0.3-1-0.6-1.5
			c-0.3-0.5-0.4-1.1-0.8-1.6c-0.3-0.6-1.3-2.2-1.1-2.9C388.6,191.2,388.6,191.1,388.6,191L388.6,191z"/>
		<path id="path1195" class="st6" d="M378,187.1c-0.4-0.1-0.6-0.4-0.9-0.7c-0.3-0.2-0.8-0.3-1-0.5c-0.7,0.3-0.1-0.5-0.5-0.3
			c-0.2-0.3-0.1-0.5-0.3-0.7c-0.2-0.3-0.5-0.4-0.7-0.7c0-0.1-0.3-0.3,0-0.3c0.4,0,0.8,0,1.1,0.1c0.4-0.1,0.6,0.2,1,0.2
			c0.5,0,1,0,1.5,0c0.2-0.1,0.3,0.2,0.5,0.1c0.2,0,0.2,0.2,0.4,0.1c0.4,0,0.5,0.5,0.7,0.7c0.3,0.2,0.4,0.5,0.5,0.8
			c0.1,0.1,0.1,0.5,0.1,0.4c0-0.1,0,0.4-0.1,0.3c-0.3,0.3-0.6,0.3-0.9,0.5c-0.4,0-0.6,0.3-1,0.3C378.3,187.2,378.1,187.1,378,187.1
			L378,187.1z"/>
		<path id="path1210" class="st16" d="M377.1,186.4c-0.5,0.2-1.1,0.4-1.6,0.3c-0.4,0.1-0.7,0.4-0.9,0.6c-0.3,0.2-0.7,0.3-1.1,0.3
			c-0.3-0.1-0.5-0.3-0.8-0.4c-0.3-0.1-0.3-0.5-0.5-0.5c-0.3-0.2-0.6-0.3-0.9-0.5c-0.3-0.1-0.2-0.5-0.2-0.7c0-0.3,0-0.5,0.1-0.8
			c0-0.4,0.3-0.5,0.7-0.5c0.6,0,1.3,0,1.9,0c0.3-0.2,0.7-0.3,1-0.3c0.3,0.1,0.5,0.5,0.8,0.7C375.9,185.3,376.5,185.8,377.1,186.4
			L377.1,186.4z"/>
		<path id="path1212" class="st16" d="M379.9,184.9c0.4-0.2,0.9-0.4,1.3-0.5c0.5,0,0.9,0.2,1.3,0.3c0.5,0.1,1,0.3,1.4,0.5
			c0.5,0.2,0.9,0.4,1.4,0.7c0.4,0.2,0.9,0.5,1.3,0.7c0.4,0.2,0.8,0.4,1.2,0.7c0.4,0.3,0.8,0.6,1.1,1.1c0.3,0.3,0,0.9-0.4,0.6
			c-0.4-0.3-0.9-0.4-1.4-0.6c-0.4-0.1-0.9-0.1-1.3-0.3c-0.5-0.1-0.9-0.4-1.3-0.5c-0.6-0.3-1.2-0.4-1.8-0.7c-0.3-0.2-0.6-0.2-0.9-0.4
			c-0.5-0.3-1.1-0.5-1.6-0.8C380.2,185.4,379.8,185.2,379.9,184.9L379.9,184.9z"/>
		<path id="path1232" d="M386.6,194.5c-1.8-0.1-3.6,0.7-5.4,0.1c-1.4-0.2-2.4,0.8-3.6,1.3c-1.5-0.1-1.8,2-3.2,1.9
			c-1.1-0.1-2.5-1-3.6-0.6c2.3,1,4.7,2.1,6.8,3.6c1.1,1,2.4,2,3.9,2.4c1,0.4,2.2,1.4,1.7,2.7c-0.5,1.4-2.6,1.7-2.7,3.3
			c-0.2,1.4-1.8,2-2.3,3.3c-0.6,1-1.8,1.6-1.9,2.8c0.3,1.5,2.1,0.4,2-0.7c0.3-1,1.1-2.5,2.3-1.9c1,1.4,2.2-1,3.4-0.4
			c0.5,0.8,1.8,1.3,2.4,0.2c0.8-0.3,2.1-0.8,1.3-2c0-1.2,1.4-1.1,2.1-1.8c0.9-0.4,1.9-1.6,0.9-2.5c-0.9-1.3,0.1-3-1.1-4.2
			c-0.9-1.3,0-3-0.7-4.4c-0.6-1.1-1.1-2.8-2.3-3.3L386.6,194.5z"/>
		<path id="path1253" class="st63" d="M435.4,243.9c-2.1,0-3.7,1.5-5.8,1.7c-2.5,0.3,0.6,1.5,1.4,2c2,1.3,4.3,1.8,6.5,2.5
			c2.1,1,4.4,1.6,6.6,1.2c2.1-0.5,0.5-2.6,0-3.8c-1.3-1.8-3.4-2.7-5-4.2C438,242.3,436.2,242.7,435.4,243.9L435.4,243.9z"/>
		<path id="path1264" class="st16" d="M434,248.3c-0.8,0.1-1.5,0.3-2.3,0.3c-0.9,0.1-1.8,0.3-2.7-0.2c-0.9-0.2-1.9-0.4-2.7-0.9
			c-0.6-0.4-1.5-0.6-1.9-1.3c-0.5-0.8,0.6-0.8,1.1-0.9c0.9-0.2,1.9-0.4,2.8-0.2c1,0.5,2.1,0.8,3.2,1.3c0.8,0.4,1.7,0.8,2.3,1.5
			C433.8,247.8,434,248.1,434,248.3L434,248.3z"/>
		<path id="path1266" class="st16" d="M444.1,247.7c0.1,0.9-1.4,0-2,0.3c-1.1,0.1-2-0.2-3-0.6c-1.5-0.7-3.1-1.4-4.8-1.8
			c-0.8-0.2-2.4-0.9-1.2-1.8c0.9-0.7,2-1.2,3.1-1.4c1.2-0.1,2.2,0.7,3.3,1.1c1.1,0.5,2.2,1,3.2,1.8
			C443.5,245.8,444.2,246.7,444.1,247.7L444.1,247.7z"/>
		<path id="path1270" class="st63" d="M416,237.6c-1.5,0.9-3.2,1.3-5,1.3c-1.6,0.6-4.2-0.8-4.8,1.2c-0.8,1.7,1.3,2.4,2.4,3.1
			c3.2,1.8,6.9,1.7,10.5,1.9c1,0.1,4-0.4,2.4-1.6c-1.8-1.4-3.1-3.2-4.5-4.9C416.6,238.4,416.2,238.1,416,237.6L416,237.6z"/>
		<path id="path1272" class="st63" d="M433.8,238.8c-0.7-0.1-1.4-0.4-2.1-0.6c-0.9-0.3-1.7-0.9-2.6-1.4c-1.2-0.7-2.4-1.4-3.6-2
			c-0.6-0.2-0.5-0.9,0.2-0.8c0.7,0,0.9-1,1.5-0.3c0.8,0.5,1.6,1,2.2,1.8c0.8,0.6,1.5,1.4,2.5,1.6
			C432.6,237.5,433.7,237.8,433.8,238.8L433.8,238.8z"/>
		<path id="path1274" class="st63" d="M431.4,242.1c0,0-3.2,0.8-4.7,0.2c-1.1-0.3-2.2-0.5-3.3-1.1c-1.3-0.6-2.6-1.2-3.6-2.2
			c-0.8-1,0.2-2.6,1.5-2.2c0.8-0.2,0.5-2,1.7-1.2c1.6,0.7,3.3,1.6,4.7,2.7c0.9,0.8,1.8,1.5,2.6,2.4
			C430.7,241.1,431.4,242.1,431.4,242.1z"/>
		<path id="path1296" class="st63" d="M407.4,219.5c2.1,0.6,4.6,1.6,6,3.4c1.9,2.3-1.8,3.5-3.5,2.2c-2.7-1.3-5.5-2.7-8.4-3.5
			c-2.8,0.4,1.2,2,2,2.7c1.2,0.7,2.3,2.1,2.3,3.5c-1.8,1.4-4.2-0.1-6.3-0.3c-2.2-0.3-3.5-2.2-4.9-3.7c-1-1.1-2.2-1.7-3.6-1.1
			c0,1.9,1.4,2.3,2.2,3.9c0.8,0.9,3.7,3.4,0.9,3.4c-2.1-0.6-4-1.9-5.1-3.8c-1.3-1.3-2.3-4,0.4-4.4c2.2-1.4,4.9-2,7.5-2
			c2.9-0.3,5.8,0.2,8.6-0.5C405.9,219.4,407.7,218.5,407.4,219.5z"/>
		<path id="path1298" class="st16" d="M385.7,221.1c-0.4,0.6-0.6,1.2-0.6,1.8c0,0.8,0,1.5,0.1,2.2c0.2,0.6,0.3,1.2,0.6,1.8
			c0.3,0.7,0.9,1.1,1.4,1.5c0.4,0.5,0.9,0.7,1.4,1c0.4,0.3,0.8,0.4,1.3,0.6c0.4,0.2,1.1,0.4,1.7,0.5c0.6,0.1,1.1,0,1.3-0.5
			c0.6-0.4,0.1-0.7-0.3-0.9c-0.5-0.1-0.9-0.5-1.4-0.9c-0.5-0.4-0.8-0.9-1.1-1.5c-0.2-0.5-0.5-0.9-0.8-1.4c-0.3-0.4-0.6-0.8-1-1.2
			c-0.5-0.4-0.9-0.9-1.3-1.4c-0.3-0.4-0.8-1-1.2-1.4C385.8,221.4,385.7,221.3,385.7,221.1L385.7,221.1z"/>
		<path id="path1300" class="st16" d="M404.5,228.5c-1.2-0.1-3.1-0.6-4.5-1c-1.6-0.6-3.1-1.5-4.1-2.9c-1.2-1.1-2.4-2.3-3.8-3.2
			c-1.5-0.4-2,1.6-1.1,2.5c0.8,1.3,2,2.3,2.9,3.5c1,1.1,2.3,1.9,3.7,2.6c1.7,1,3.7,1.4,5.7,1.5c1.1-0.1,2.5-0.8,2.8-2
			C406.1,228.7,405.1,228.6,404.5,228.5z"/>
		<path id="path1304" class="st16" d="M400.4,238.1c-1,0.2-2.2,0.2-3.1-0.5c-0.9-0.4-1.5-1.3-2-2.1c-0.7-0.8-1.6-1.7-2.7-2.1
			c-1-0.3-2.1,0.4-1.8,1.5c0.1,0.9,0.8,1.6,1.5,2.3c1,1,2.4,1.5,3.7,2.1c0.7,0.4,1.5,0.4,2.2,0.4c0.8,0,1.9,0.3,2.2-0.7
			C400.4,238.8,400.3,238.4,400.4,238.1L400.4,238.1z"/>
		<path id="path1306" class="st16" d="M410.9,235.1c0.9,0.4,1.5,1.5,0.9,2.4c-0.7,0.9-1.9,1.5-3,1.3c-1,0-2,0.1-2.9-0.2
			c-1.1-0.3-2.1-0.8-3.1-1.4c-1.1-0.4-1.2-1.7-1.9-2.4c-0.5-0.8,1.1-1.2,1.7-1c1.1,0.3,1.7,1.3,2.7,1.7c0.8,0.4,1.6,0.8,2.6,0.9
			c0.8,0.2,1.8,0.4,2.3-0.5C410.4,235.8,410.6,235.4,410.9,235.1L410.9,235.1z"/>
		<path id="path1308" class="st16" d="M420,232.8c0.8,0.8,0.3,2.3-0.8,2.6c-0.9,0.2-1.9,0.4-2.8,0.1c-1.3-0.3-2.5-1-3.7-1.8
			c-0.7-0.6-1.8-0.8-2.3-1.6c-0.3-1.1,0.9-2,1.9-1.6c1.5,0.5,3,0.7,4.4,1.4c1,0.4,2,0.9,3.1,0.9L420,232.8z"/>
		<path id="path1342" class="st64" d="M423,222.5c4.7,3.8,9.2,7.8,12.9,12.6c2.8,3.3,4.5,7.9,8.7,9.9c5.8,6.2,30.7,13.4,30.8,15.3
			c-5.7-2.3-8.2,5.5-13.8,4.2c-5.2,1.5-9.4-1.9-13.9-3.8c-6.7-0.2-13.7,0.1-19.7,3.5c-3.3,1.8-7.2-1-9.7-0.1l-0.3,0.6l-0.4,0.3
			 M385.7,253.2c-4-2-6.9-5.7-10.6-7.9c-2.9-4-6.5-8.1-6.4-13.4c-0.5-5.5-1.9-13.1,0.7-18.3c-1.9-4.1-4.5-5.2-6.6-9.2
			c-1.5-5.6-7.2-8.8-3.8-13c3.8-3.4,6.4-7.3,11.3-9.1c4-0.9,8.1-0.5,12,0.8c5,0.6,7.8,4.9,10.4,8.6c3.2,5,5.3,10.6,6.2,16.5
			c2.3,4.8,8.5,5.8,13,7.9c3.9,1.8,7.8,3.4,11,6.4"/>
	</g>
</g>
</svg>
